<mxfile host="Electron" modified="2024-04-02T01:19:13.364Z" agent="Mozilla/5.0 (Windows NT 10.0; Win64; x64) AppleWebKit/537.36 (KHTML, like Gecko) draw.io/24.1.0 Chrome/120.0.6099.109 Electron/28.1.0 Safari/537.36" etag="gmo67V_qgz_jaiiFoS6O" version="24.1.0" type="device" pages="4">
  <diagram name="as-ai-bpmn" id="s72uD2RQLo3C1xAi1Bvz">
    <mxGraphModel dx="1418" dy="902" grid="1" gridSize="10" guides="1" tooltips="1" connect="1" arrows="1" fold="1" page="1" pageScale="1" pageWidth="850" pageHeight="1100" math="0" shadow="0">
      <root>
        <mxCell id="0" />
        <mxCell id="1" parent="0" />
        <mxCell id="eOIv2APIhze834-IvcnU-1" value="Nhân viên" style="swimlane;html=1;startSize=20;fontStyle=0;collapsible=0;horizontal=0;swimlaneLine=1;swimlaneFillColor=#ffffff;strokeWidth=2;whiteSpace=wrap;" parent="1" vertex="1">
          <mxGeometry x="40" y="100" width="1160" height="180" as="geometry" />
        </mxCell>
        <mxCell id="eOIv2APIhze834-IvcnU-20" value="Tích vào lịch rảnh" style="points=[[0.25,0,0],[0.5,0,0],[0.75,0,0],[1,0.25,0],[1,0.5,0],[1,0.75,0],[0.75,1,0],[0.5,1,0],[0.25,1,0],[0,0.75,0],[0,0.5,0],[0,0.25,0]];shape=mxgraph.bpmn.task;whiteSpace=wrap;rectStyle=rounded;size=10;html=1;container=1;expand=0;collapsible=0;taskMarker=user;" parent="eOIv2APIhze834-IvcnU-1" vertex="1">
          <mxGeometry x="226" y="63.75" width="110" height="60" as="geometry" />
        </mxCell>
        <mxCell id="eOIv2APIhze834-IvcnU-28" value="Nhận lịch làm" style="points=[[0.25,0,0],[0.5,0,0],[0.75,0,0],[1,0.25,0],[1,0.5,0],[1,0.75,0],[0.75,1,0],[0.5,1,0],[0.25,1,0],[0,0.75,0],[0,0.5,0],[0,0.25,0]];shape=mxgraph.bpmn.task;whiteSpace=wrap;rectStyle=rounded;size=10;html=1;container=1;expand=0;collapsible=0;taskMarker=receive;" parent="eOIv2APIhze834-IvcnU-1" vertex="1">
          <mxGeometry x="380" y="100" width="120" height="60" as="geometry" />
        </mxCell>
        <mxCell id="eOIv2APIhze834-IvcnU-31" value="Đi làm theo lịch" style="points=[[0.25,0,0],[0.5,0,0],[0.75,0,0],[1,0.25,0],[1,0.5,0],[1,0.75,0],[0.75,1,0],[0.5,1,0],[0.25,1,0],[0,0.75,0],[0,0.5,0],[0,0.25,0]];shape=mxgraph.bpmn.task;whiteSpace=wrap;rectStyle=rounded;size=10;html=1;container=1;expand=0;collapsible=0;taskMarker=user;" parent="eOIv2APIhze834-IvcnU-1" vertex="1">
          <mxGeometry x="385" y="10" width="110" height="60" as="geometry" />
        </mxCell>
        <mxCell id="eOIv2APIhze834-IvcnU-34" style="edgeStyle=orthogonalEdgeStyle;rounded=0;orthogonalLoop=1;jettySize=auto;html=1;entryX=0.5;entryY=1;entryDx=0;entryDy=0;entryPerimeter=0;" parent="eOIv2APIhze834-IvcnU-1" source="eOIv2APIhze834-IvcnU-28" target="eOIv2APIhze834-IvcnU-31" edge="1">
          <mxGeometry relative="1" as="geometry" />
        </mxCell>
        <mxCell id="eOIv2APIhze834-IvcnU-35" value="Chụp hình tại quán" style="points=[[0.25,0,0],[0.5,0,0],[0.75,0,0],[1,0.25,0],[1,0.5,0],[1,0.75,0],[0.75,1,0],[0.5,1,0],[0.25,1,0],[0,0.75,0],[0,0.5,0],[0,0.25,0]];shape=mxgraph.bpmn.task;whiteSpace=wrap;rectStyle=rounded;size=10;html=1;container=1;expand=0;collapsible=0;taskMarker=user;" parent="eOIv2APIhze834-IvcnU-1" vertex="1">
          <mxGeometry x="586" y="10" width="110" height="60" as="geometry" />
        </mxCell>
        <mxCell id="eOIv2APIhze834-IvcnU-36" style="edgeStyle=orthogonalEdgeStyle;rounded=0;orthogonalLoop=1;jettySize=auto;html=1;entryX=0;entryY=0.5;entryDx=0;entryDy=0;entryPerimeter=0;" parent="eOIv2APIhze834-IvcnU-1" source="eOIv2APIhze834-IvcnU-31" target="eOIv2APIhze834-IvcnU-35" edge="1">
          <mxGeometry relative="1" as="geometry" />
        </mxCell>
        <mxCell id="eOIv2APIhze834-IvcnU-39" value="Gửi hình" style="points=[[0.25,0,0],[0.5,0,0],[0.75,0,0],[1,0.25,0],[1,0.5,0],[1,0.75,0],[0.75,1,0],[0.5,1,0],[0.25,1,0],[0,0.75,0],[0,0.5,0],[0,0.25,0]];shape=mxgraph.bpmn.task;whiteSpace=wrap;rectStyle=rounded;size=10;html=1;container=1;expand=0;collapsible=0;taskMarker=send;" parent="eOIv2APIhze834-IvcnU-1" vertex="1">
          <mxGeometry x="587" y="100" width="110" height="60" as="geometry" />
        </mxCell>
        <mxCell id="eOIv2APIhze834-IvcnU-41" style="edgeStyle=orthogonalEdgeStyle;rounded=0;orthogonalLoop=1;jettySize=auto;html=1;entryX=0.5;entryY=0;entryDx=0;entryDy=0;entryPerimeter=0;" parent="eOIv2APIhze834-IvcnU-1" source="eOIv2APIhze834-IvcnU-35" target="eOIv2APIhze834-IvcnU-39" edge="1">
          <mxGeometry relative="1" as="geometry" />
        </mxCell>
        <mxCell id="eOIv2APIhze834-IvcnU-48" value="Nhận thông báo lương" style="points=[[0.25,0,0],[0.5,0,0],[0.75,0,0],[1,0.25,0],[1,0.5,0],[1,0.75,0],[0.75,1,0],[0.5,1,0],[0.25,1,0],[0,0.75,0],[0,0.5,0],[0,0.25,0]];shape=mxgraph.bpmn.task;whiteSpace=wrap;rectStyle=rounded;size=10;html=1;container=1;expand=0;collapsible=0;taskMarker=receive;" parent="eOIv2APIhze834-IvcnU-1" vertex="1">
          <mxGeometry x="760" y="60" width="120" height="60" as="geometry" />
        </mxCell>
        <mxCell id="eOIv2APIhze834-IvcnU-51" style="edgeStyle=orthogonalEdgeStyle;rounded=0;orthogonalLoop=1;jettySize=auto;html=1;entryX=0;entryY=0.5;entryDx=0;entryDy=0;entryPerimeter=0;" parent="eOIv2APIhze834-IvcnU-1" source="eOIv2APIhze834-IvcnU-48" edge="1">
          <mxGeometry relative="1" as="geometry">
            <mxPoint x="910" y="90" as="targetPoint" />
          </mxGeometry>
        </mxCell>
        <mxCell id="eOIv2APIhze834-IvcnU-52" value="" style="points=[[0.145,0.145,0],[0.5,0,0],[0.855,0.145,0],[1,0.5,0],[0.855,0.855,0],[0.5,1,0],[0.145,0.855,0],[0,0.5,0]];shape=mxgraph.bpmn.event;html=1;verticalLabelPosition=bottom;labelBackgroundColor=#ffffff;verticalAlign=top;align=center;perimeter=ellipsePerimeter;outlineConnect=0;aspect=fixed;outline=standard;symbol=general;" parent="eOIv2APIhze834-IvcnU-1" vertex="1">
          <mxGeometry x="30" y="70" width="45" height="45" as="geometry" />
        </mxCell>
        <mxCell id="eOIv2APIhze834-IvcnU-53" value="Gửi thông tin cá nhân" style="points=[[0.25,0,0],[0.5,0,0],[0.75,0,0],[1,0.25,0],[1,0.5,0],[1,0.75,0],[0.75,1,0],[0.5,1,0],[0.25,1,0],[0,0.75,0],[0,0.5,0],[0,0.25,0]];shape=mxgraph.bpmn.task;whiteSpace=wrap;rectStyle=rounded;size=10;html=1;container=1;expand=0;collapsible=0;taskMarker=send;" parent="eOIv2APIhze834-IvcnU-1" vertex="1">
          <mxGeometry x="100" y="57.5" width="100" height="72.5" as="geometry" />
        </mxCell>
        <mxCell id="eOIv2APIhze834-IvcnU-58" style="edgeStyle=orthogonalEdgeStyle;rounded=0;orthogonalLoop=1;jettySize=auto;html=1;entryX=0;entryY=0.5;entryDx=0;entryDy=0;entryPerimeter=0;" parent="eOIv2APIhze834-IvcnU-1" source="eOIv2APIhze834-IvcnU-52" target="eOIv2APIhze834-IvcnU-53" edge="1">
          <mxGeometry relative="1" as="geometry" />
        </mxCell>
        <mxCell id="HGgBGZpWyLn6VPhZ_CKR-1" value="" style="points=[[0.145,0.145,0],[0.5,0,0],[0.855,0.145,0],[1,0.5,0],[0.855,0.855,0],[0.5,1,0],[0.145,0.855,0],[0,0.5,0]];shape=mxgraph.bpmn.event;html=1;verticalLabelPosition=bottom;labelBackgroundColor=#ffffff;verticalAlign=top;align=center;perimeter=ellipsePerimeter;outlineConnect=0;aspect=fixed;outline=end;symbol=terminate;" parent="eOIv2APIhze834-IvcnU-1" vertex="1">
          <mxGeometry x="910" y="63.75" width="50" height="50" as="geometry" />
        </mxCell>
        <mxCell id="eOIv2APIhze834-IvcnU-2" value="Chủ quán" style="swimlane;html=1;startSize=20;fontStyle=0;collapsible=0;horizontal=0;swimlaneLine=1;swimlaneFillColor=#ffffff;strokeWidth=2;whiteSpace=wrap;" parent="1" vertex="1">
          <mxGeometry x="40" y="320" width="1160" height="280" as="geometry" />
        </mxCell>
        <mxCell id="eOIv2APIhze834-IvcnU-19" value="Tạo file Excel đăng kí lịch làm" style="points=[[0.25,0,0],[0.5,0,0],[0.75,0,0],[1,0.25,0],[1,0.5,0],[1,0.75,0],[0.75,1,0],[0.5,1,0],[0.25,1,0],[0,0.75,0],[0,0.5,0],[0,0.25,0]];shape=mxgraph.bpmn.task;whiteSpace=wrap;rectStyle=rounded;size=10;html=1;container=1;expand=0;collapsible=0;taskMarker=user;" parent="eOIv2APIhze834-IvcnU-2" vertex="1">
          <mxGeometry x="230" y="118.25" width="100" height="70" as="geometry" />
        </mxCell>
        <mxCell id="eOIv2APIhze834-IvcnU-23" value="Duyệt lại và chốt lịch làm" style="points=[[0.25,0,0],[0.5,0,0],[0.75,0,0],[1,0.25,0],[1,0.5,0],[1,0.75,0],[0.75,1,0],[0.5,1,0],[0.25,1,0],[0,0.75,0],[0,0.5,0],[0,0.25,0]];shape=mxgraph.bpmn.task;whiteSpace=wrap;rectStyle=rounded;size=10;html=1;container=1;expand=0;collapsible=0;taskMarker=user;" parent="eOIv2APIhze834-IvcnU-2" vertex="1">
          <mxGeometry x="360" y="110" width="110" height="65" as="geometry" />
        </mxCell>
        <mxCell id="eOIv2APIhze834-IvcnU-27" value="Gửi lịch làm" style="points=[[0.25,0,0],[0.5,0,0],[0.75,0,0],[1,0.25,0],[1,0.5,0],[1,0.75,0],[0.75,1,0],[0.5,1,0],[0.25,1,0],[0,0.75,0],[0,0.5,0],[0,0.25,0]];shape=mxgraph.bpmn.task;whiteSpace=wrap;rectStyle=rounded;size=10;html=1;container=1;expand=0;collapsible=0;taskMarker=send;" parent="eOIv2APIhze834-IvcnU-2" vertex="1">
          <mxGeometry x="510" y="106.5" width="110" height="73" as="geometry" />
        </mxCell>
        <mxCell id="eOIv2APIhze834-IvcnU-32" value="Tích ca nhân viên đã làm" style="points=[[0.25,0,0],[0.5,0,0],[0.75,0,0],[1,0.25,0],[1,0.5,0],[1,0.75,0],[0.75,1,0],[0.5,1,0],[0.25,1,0],[0,0.75,0],[0,0.5,0],[0,0.25,0]];shape=mxgraph.bpmn.task;whiteSpace=wrap;rectStyle=rounded;size=10;html=1;container=1;expand=0;collapsible=0;taskMarker=user;" parent="eOIv2APIhze834-IvcnU-2" vertex="1">
          <mxGeometry x="660" y="107.5" width="110" height="65" as="geometry" />
        </mxCell>
        <mxCell id="eOIv2APIhze834-IvcnU-38" value="Nhận hình" style="points=[[0.25,0,0],[0.5,0,0],[0.75,0,0],[1,0.25,0],[1,0.5,0],[1,0.75,0],[0.75,1,0],[0.5,1,0],[0.25,1,0],[0,0.75,0],[0,0.5,0],[0,0.25,0]];shape=mxgraph.bpmn.task;whiteSpace=wrap;rectStyle=rounded;size=10;html=1;container=1;expand=0;collapsible=0;taskMarker=receive;" parent="eOIv2APIhze834-IvcnU-2" vertex="1">
          <mxGeometry x="585" y="10" width="120" height="60" as="geometry" />
        </mxCell>
        <mxCell id="eOIv2APIhze834-IvcnU-44" value="Tính lương" style="points=[[0.25,0,0],[0.5,0,0],[0.75,0,0],[1,0.25,0],[1,0.5,0],[1,0.75,0],[0.75,1,0],[0.5,1,0],[0.25,1,0],[0,0.75,0],[0,0.5,0],[0,0.25,0]];shape=mxgraph.bpmn.task;whiteSpace=wrap;rectStyle=rounded;size=10;html=1;container=1;expand=0;collapsible=0;taskMarker=user;" parent="eOIv2APIhze834-IvcnU-2" vertex="1">
          <mxGeometry x="810" y="107.5" width="110" height="65" as="geometry" />
        </mxCell>
        <mxCell id="eOIv2APIhze834-IvcnU-45" style="edgeStyle=orthogonalEdgeStyle;rounded=0;orthogonalLoop=1;jettySize=auto;html=1;entryX=0;entryY=0.5;entryDx=0;entryDy=0;entryPerimeter=0;" parent="eOIv2APIhze834-IvcnU-2" source="eOIv2APIhze834-IvcnU-32" target="eOIv2APIhze834-IvcnU-44" edge="1">
          <mxGeometry relative="1" as="geometry" />
        </mxCell>
        <mxCell id="eOIv2APIhze834-IvcnU-46" value="Gửi thông báo lương" style="points=[[0.25,0,0],[0.5,0,0],[0.75,0,0],[1,0.25,0],[1,0.5,0],[1,0.75,0],[0.75,1,0],[0.5,1,0],[0.25,1,0],[0,0.75,0],[0,0.5,0],[0,0.25,0]];shape=mxgraph.bpmn.task;whiteSpace=wrap;rectStyle=rounded;size=10;html=1;container=1;expand=0;collapsible=0;taskMarker=send;" parent="eOIv2APIhze834-IvcnU-2" vertex="1">
          <mxGeometry x="960" y="110" width="110" height="60" as="geometry" />
        </mxCell>
        <mxCell id="eOIv2APIhze834-IvcnU-47" style="edgeStyle=orthogonalEdgeStyle;rounded=0;orthogonalLoop=1;jettySize=auto;html=1;entryX=0;entryY=0.5;entryDx=0;entryDy=0;entryPerimeter=0;" parent="eOIv2APIhze834-IvcnU-2" source="eOIv2APIhze834-IvcnU-44" target="eOIv2APIhze834-IvcnU-46" edge="1">
          <mxGeometry relative="1" as="geometry" />
        </mxCell>
        <mxCell id="eOIv2APIhze834-IvcnU-54" value="Nhận thông tin" style="points=[[0.25,0,0],[0.5,0,0],[0.75,0,0],[1,0.25,0],[1,0.5,0],[1,0.75,0],[0.75,1,0],[0.5,1,0],[0.25,1,0],[0,0.75,0],[0,0.5,0],[0,0.25,0]];shape=mxgraph.bpmn.task;whiteSpace=wrap;rectStyle=rounded;size=10;html=1;container=1;expand=0;collapsible=0;taskMarker=receive;" parent="eOIv2APIhze834-IvcnU-2" vertex="1">
          <mxGeometry x="60" y="30" width="120" height="60" as="geometry" />
        </mxCell>
        <mxCell id="eOIv2APIhze834-IvcnU-56" value="Tạo file Excel nhập thông tin nhân viên" style="points=[[0.25,0,0],[0.5,0,0],[0.75,0,0],[1,0.25,0],[1,0.5,0],[1,0.75,0],[0.75,1,0],[0.5,1,0],[0.25,1,0],[0,0.75,0],[0,0.5,0],[0,0.25,0]];shape=mxgraph.bpmn.task;whiteSpace=wrap;rectStyle=rounded;size=10;html=1;container=1;expand=0;collapsible=0;taskMarker=user;" parent="eOIv2APIhze834-IvcnU-2" vertex="1">
          <mxGeometry x="60" y="116.5" width="120" height="73.5" as="geometry" />
        </mxCell>
        <mxCell id="eOIv2APIhze834-IvcnU-57" style="edgeStyle=orthogonalEdgeStyle;rounded=0;orthogonalLoop=1;jettySize=auto;html=1;entryX=0;entryY=0.5;entryDx=0;entryDy=0;entryPerimeter=0;" parent="eOIv2APIhze834-IvcnU-2" source="eOIv2APIhze834-IvcnU-56" target="eOIv2APIhze834-IvcnU-19" edge="1">
          <mxGeometry relative="1" as="geometry" />
        </mxCell>
        <mxCell id="eOIv2APIhze834-IvcnU-60" style="edgeStyle=orthogonalEdgeStyle;rounded=0;orthogonalLoop=1;jettySize=auto;html=1;entryX=0.5;entryY=0;entryDx=0;entryDy=0;entryPerimeter=0;" parent="eOIv2APIhze834-IvcnU-2" source="eOIv2APIhze834-IvcnU-54" target="eOIv2APIhze834-IvcnU-56" edge="1">
          <mxGeometry relative="1" as="geometry" />
        </mxCell>
        <mxCell id="eOIv2APIhze834-IvcnU-64" style="edgeStyle=orthogonalEdgeStyle;rounded=0;orthogonalLoop=1;jettySize=auto;html=1;entryX=0;entryY=0.5;entryDx=0;entryDy=0;entryPerimeter=0;" parent="eOIv2APIhze834-IvcnU-2" source="eOIv2APIhze834-IvcnU-23" target="eOIv2APIhze834-IvcnU-27" edge="1">
          <mxGeometry relative="1" as="geometry" />
        </mxCell>
        <mxCell id="eOIv2APIhze834-IvcnU-69" style="edgeStyle=orthogonalEdgeStyle;rounded=0;orthogonalLoop=1;jettySize=auto;html=1;entryX=0.5;entryY=0;entryDx=0;entryDy=0;entryPerimeter=0;" parent="eOIv2APIhze834-IvcnU-2" source="eOIv2APIhze834-IvcnU-38" target="eOIv2APIhze834-IvcnU-32" edge="1">
          <mxGeometry relative="1" as="geometry" />
        </mxCell>
        <mxCell id="eOIv2APIhze834-IvcnU-55" style="edgeStyle=orthogonalEdgeStyle;rounded=0;orthogonalLoop=1;jettySize=auto;html=1;entryX=0.5;entryY=0;entryDx=0;entryDy=0;entryPerimeter=0;" parent="1" source="eOIv2APIhze834-IvcnU-53" target="eOIv2APIhze834-IvcnU-54" edge="1">
          <mxGeometry relative="1" as="geometry" />
        </mxCell>
        <mxCell id="eOIv2APIhze834-IvcnU-61" style="edgeStyle=orthogonalEdgeStyle;rounded=0;orthogonalLoop=1;jettySize=auto;html=1;entryX=0.5;entryY=1;entryDx=0;entryDy=0;entryPerimeter=0;" parent="1" source="eOIv2APIhze834-IvcnU-19" target="eOIv2APIhze834-IvcnU-20" edge="1">
          <mxGeometry relative="1" as="geometry" />
        </mxCell>
        <mxCell id="eOIv2APIhze834-IvcnU-62" style="edgeStyle=orthogonalEdgeStyle;rounded=0;orthogonalLoop=1;jettySize=auto;html=1;entryX=0.5;entryY=0;entryDx=0;entryDy=0;entryPerimeter=0;" parent="1" source="eOIv2APIhze834-IvcnU-20" target="eOIv2APIhze834-IvcnU-23" edge="1">
          <mxGeometry relative="1" as="geometry">
            <Array as="points">
              <mxPoint x="360" y="300" />
              <mxPoint x="455" y="300" />
            </Array>
          </mxGeometry>
        </mxCell>
        <mxCell id="eOIv2APIhze834-IvcnU-66" style="edgeStyle=orthogonalEdgeStyle;rounded=0;orthogonalLoop=1;jettySize=auto;html=1;entryX=0.75;entryY=1;entryDx=0;entryDy=0;entryPerimeter=0;" parent="1" source="eOIv2APIhze834-IvcnU-27" target="eOIv2APIhze834-IvcnU-28" edge="1">
          <mxGeometry relative="1" as="geometry">
            <Array as="points">
              <mxPoint x="570" y="300" />
              <mxPoint x="510" y="300" />
            </Array>
          </mxGeometry>
        </mxCell>
        <mxCell id="eOIv2APIhze834-IvcnU-68" style="edgeStyle=orthogonalEdgeStyle;rounded=0;orthogonalLoop=1;jettySize=auto;html=1;entryX=0.5;entryY=0;entryDx=0;entryDy=0;entryPerimeter=0;" parent="1" source="eOIv2APIhze834-IvcnU-39" target="eOIv2APIhze834-IvcnU-38" edge="1">
          <mxGeometry relative="1" as="geometry" />
        </mxCell>
        <mxCell id="eOIv2APIhze834-IvcnU-70" style="edgeStyle=orthogonalEdgeStyle;rounded=0;orthogonalLoop=1;jettySize=auto;html=1;entryX=0.5;entryY=1;entryDx=0;entryDy=0;entryPerimeter=0;" parent="1" source="eOIv2APIhze834-IvcnU-46" target="eOIv2APIhze834-IvcnU-48" edge="1">
          <mxGeometry relative="1" as="geometry">
            <Array as="points">
              <mxPoint x="1055" y="300" />
              <mxPoint x="860" y="300" />
            </Array>
          </mxGeometry>
        </mxCell>
      </root>
    </mxGraphModel>
  </diagram>
  <diagram id="ppBOI5Q6uqUPesmLRVH8" name="tobe-system-bpmn">
    <mxGraphModel dx="3900" dy="3580" grid="1" gridSize="10" guides="1" tooltips="1" connect="1" arrows="1" fold="1" page="1" pageScale="1" pageWidth="850" pageHeight="1100" math="0" shadow="0">
      <root>
        <mxCell id="0" />
        <mxCell id="1" parent="0" />
        <mxCell id="mfKZD1bs8GT6rzWeoJmu-1" value="&lt;span style=&quot;font-size: 20px;&quot;&gt;CHỦ QUÁN&lt;/span&gt;" style="swimlane;html=1;startSize=40;fontStyle=1;collapsible=0;horizontal=0;swimlaneLine=1;swimlaneFillColor=#ffffff;strokeWidth=2;whiteSpace=wrap;fillColor=#dae8fc;gradientColor=#7ea6e0;strokeColor=#6c8ebf;" vertex="1" parent="1">
          <mxGeometry x="40" y="-430" width="3950" height="530" as="geometry" />
        </mxCell>
        <mxCell id="mfKZD1bs8GT6rzWeoJmu-2" value="Chọn đăng nhập với tư cách chủ quán" style="points=[[0.25,0,0],[0.5,0,0],[0.75,0,0],[1,0.25,0],[1,0.5,0],[1,0.75,0],[0.75,1,0],[0.5,1,0],[0.25,1,0],[0,0.75,0],[0,0.5,0],[0,0.25,0]];shape=mxgraph.bpmn.task;whiteSpace=wrap;rectStyle=rounded;size=10;html=1;container=1;expand=0;collapsible=0;taskMarker=user;fontSize=14;" vertex="1" parent="mfKZD1bs8GT6rzWeoJmu-1">
          <mxGeometry x="90" y="110" width="140" height="60" as="geometry" />
        </mxCell>
        <mxCell id="mfKZD1bs8GT6rzWeoJmu-3" value="Nhập mã đăng nhập" style="points=[[0.25,0,0],[0.5,0,0],[0.75,0,0],[1,0.25,0],[1,0.5,0],[1,0.75,0],[0.75,1,0],[0.5,1,0],[0.25,1,0],[0,0.75,0],[0,0.5,0],[0,0.25,0]];shape=mxgraph.bpmn.task;whiteSpace=wrap;rectStyle=rounded;size=10;html=1;container=1;expand=0;collapsible=0;taskMarker=user;fontSize=14;" vertex="1" parent="mfKZD1bs8GT6rzWeoJmu-1">
          <mxGeometry x="280" y="110" width="130" height="60" as="geometry" />
        </mxCell>
        <mxCell id="mfKZD1bs8GT6rzWeoJmu-4" style="edgeStyle=orthogonalEdgeStyle;rounded=0;orthogonalLoop=1;jettySize=auto;html=1;entryX=0;entryY=0.5;entryDx=0;entryDy=0;entryPerimeter=0;" edge="1" parent="mfKZD1bs8GT6rzWeoJmu-1" source="mfKZD1bs8GT6rzWeoJmu-2" target="mfKZD1bs8GT6rzWeoJmu-3">
          <mxGeometry relative="1" as="geometry" />
        </mxCell>
        <mxCell id="mfKZD1bs8GT6rzWeoJmu-5" value="Nhập mật khẩu" style="points=[[0.25,0,0],[0.5,0,0],[0.75,0,0],[1,0.25,0],[1,0.5,0],[1,0.75,0],[0.75,1,0],[0.5,1,0],[0.25,1,0],[0,0.75,0],[0,0.5,0],[0,0.25,0]];shape=mxgraph.bpmn.task;whiteSpace=wrap;rectStyle=rounded;size=10;html=1;container=1;expand=0;collapsible=0;taskMarker=user;fontSize=14;" vertex="1" parent="mfKZD1bs8GT6rzWeoJmu-1">
          <mxGeometry x="280" y="210" width="130" height="50" as="geometry" />
        </mxCell>
        <mxCell id="mfKZD1bs8GT6rzWeoJmu-6" style="edgeStyle=orthogonalEdgeStyle;rounded=0;orthogonalLoop=1;jettySize=auto;html=1;entryX=0.5;entryY=0;entryDx=0;entryDy=0;entryPerimeter=0;" edge="1" parent="mfKZD1bs8GT6rzWeoJmu-1" source="mfKZD1bs8GT6rzWeoJmu-3" target="mfKZD1bs8GT6rzWeoJmu-5">
          <mxGeometry relative="1" as="geometry" />
        </mxCell>
        <mxCell id="mfKZD1bs8GT6rzWeoJmu-7" value="&lt;font style=&quot;font-size: 14px;&quot;&gt;Chọn chức năng&lt;/font&gt;" style="points=[[0.25,0,0],[0.5,0,0],[0.75,0,0],[1,0.25,0],[1,0.5,0],[1,0.75,0],[0.75,1,0],[0.5,1,0],[0.25,1,0],[0,0.75,0],[0,0.5,0],[0,0.25,0]];shape=mxgraph.bpmn.task;whiteSpace=wrap;rectStyle=rounded;size=10;html=1;container=1;expand=0;collapsible=0;taskMarker=user;" vertex="1" parent="mfKZD1bs8GT6rzWeoJmu-1">
          <mxGeometry x="1610" y="210" width="140" height="80" as="geometry" />
        </mxCell>
        <mxCell id="mfKZD1bs8GT6rzWeoJmu-8" value="" style="points=[[0.25,0.25,0],[0.5,0,0],[0.75,0.25,0],[1,0.5,0],[0.75,0.75,0],[0.5,1,0],[0.25,0.75,0],[0,0.5,0]];shape=mxgraph.bpmn.gateway2;html=1;verticalLabelPosition=bottom;labelBackgroundColor=#ffffff;verticalAlign=top;align=center;perimeter=rhombusPerimeter;outlineConnect=0;outline=none;symbol=none;gwType=exclusive;" vertex="1" parent="mfKZD1bs8GT6rzWeoJmu-1">
          <mxGeometry x="1780" y="225" width="50" height="50" as="geometry" />
        </mxCell>
        <mxCell id="mfKZD1bs8GT6rzWeoJmu-9" style="edgeStyle=orthogonalEdgeStyle;rounded=0;orthogonalLoop=1;jettySize=auto;html=1;entryX=0;entryY=0.5;entryDx=0;entryDy=0;entryPerimeter=0;" edge="1" parent="mfKZD1bs8GT6rzWeoJmu-1" source="mfKZD1bs8GT6rzWeoJmu-7" target="mfKZD1bs8GT6rzWeoJmu-8">
          <mxGeometry relative="1" as="geometry" />
        </mxCell>
        <mxCell id="mfKZD1bs8GT6rzWeoJmu-10" value="&lt;font style=&quot;font-size: 14px;&quot;&gt;Gửi thông báo&lt;/font&gt;" style="points=[[0.25,0,0],[0.5,0,0],[0.75,0,0],[1,0.25,0],[1,0.5,0],[1,0.75,0],[0.75,1,0],[0.5,1,0],[0.25,1,0],[0,0.75,0],[0,0.5,0],[0,0.25,0]];shape=mxgraph.bpmn.task;whiteSpace=wrap;rectStyle=rounded;size=10;html=1;container=1;expand=0;collapsible=0;taskMarker=send;" vertex="1" parent="mfKZD1bs8GT6rzWeoJmu-1">
          <mxGeometry x="1885" y="350" width="145" height="60" as="geometry" />
        </mxCell>
        <mxCell id="mfKZD1bs8GT6rzWeoJmu-11" value="&lt;span style=&quot;font-size: 14px;&quot;&gt;Tạo lịch làm&lt;/span&gt;" style="points=[[0.25,0,0],[0.5,0,0],[0.75,0,0],[1,0.25,0],[1,0.5,0],[1,0.75,0],[0.75,1,0],[0.5,1,0],[0.25,1,0],[0,0.75,0],[0,0.5,0],[0,0.25,0]];shape=mxgraph.bpmn.task;whiteSpace=wrap;rectStyle=rounded;size=10;html=1;container=1;expand=0;collapsible=0;taskMarker=user;" vertex="1" parent="mfKZD1bs8GT6rzWeoJmu-1">
          <mxGeometry x="1885" y="220" width="140" height="60" as="geometry" />
        </mxCell>
        <mxCell id="mfKZD1bs8GT6rzWeoJmu-12" style="edgeStyle=orthogonalEdgeStyle;rounded=0;orthogonalLoop=1;jettySize=auto;html=1;" edge="1" parent="mfKZD1bs8GT6rzWeoJmu-1" source="mfKZD1bs8GT6rzWeoJmu-13">
          <mxGeometry relative="1" as="geometry">
            <mxPoint x="2050" y="140" as="targetPoint" />
          </mxGeometry>
        </mxCell>
        <mxCell id="mfKZD1bs8GT6rzWeoJmu-13" value="&lt;font style=&quot;font-size: 14px;&quot;&gt;Quản lý thông tin nhân viên&lt;/font&gt;" style="points=[[0.25,0,0],[0.5,0,0],[0.75,0,0],[1,0.25,0],[1,0.5,0],[1,0.75,0],[0.75,1,0],[0.5,1,0],[0.25,1,0],[0,0.75,0],[0,0.5,0],[0,0.25,0]];shape=mxgraph.bpmn.task;whiteSpace=wrap;rectStyle=rounded;size=10;html=1;container=1;expand=0;collapsible=0;taskMarker=user;" vertex="1" parent="mfKZD1bs8GT6rzWeoJmu-1">
          <mxGeometry x="1885" y="110" width="140" height="60" as="geometry" />
        </mxCell>
        <mxCell id="mfKZD1bs8GT6rzWeoJmu-14" style="edgeStyle=orthogonalEdgeStyle;rounded=0;orthogonalLoop=1;jettySize=auto;html=1;entryX=0;entryY=0.5;entryDx=0;entryDy=0;entryPerimeter=0;exitX=0.5;exitY=0;exitDx=0;exitDy=0;exitPerimeter=0;" edge="1" parent="mfKZD1bs8GT6rzWeoJmu-1" source="mfKZD1bs8GT6rzWeoJmu-8" target="mfKZD1bs8GT6rzWeoJmu-13">
          <mxGeometry relative="1" as="geometry">
            <mxPoint x="1810" y="230" as="sourcePoint" />
            <Array as="points">
              <mxPoint x="1805" y="140" />
            </Array>
          </mxGeometry>
        </mxCell>
        <mxCell id="mfKZD1bs8GT6rzWeoJmu-15" style="edgeStyle=orthogonalEdgeStyle;rounded=0;orthogonalLoop=1;jettySize=auto;html=1;entryX=0;entryY=0.5;entryDx=0;entryDy=0;entryPerimeter=0;" edge="1" parent="mfKZD1bs8GT6rzWeoJmu-1" source="mfKZD1bs8GT6rzWeoJmu-8" target="mfKZD1bs8GT6rzWeoJmu-11">
          <mxGeometry relative="1" as="geometry" />
        </mxCell>
        <mxCell id="mfKZD1bs8GT6rzWeoJmu-16" style="edgeStyle=orthogonalEdgeStyle;rounded=0;orthogonalLoop=1;jettySize=auto;html=1;entryX=0;entryY=0.5;entryDx=0;entryDy=0;entryPerimeter=0;" edge="1" parent="mfKZD1bs8GT6rzWeoJmu-1" source="mfKZD1bs8GT6rzWeoJmu-8" target="mfKZD1bs8GT6rzWeoJmu-10">
          <mxGeometry relative="1" as="geometry">
            <Array as="points">
              <mxPoint x="1805" y="380" />
            </Array>
          </mxGeometry>
        </mxCell>
        <mxCell id="mfKZD1bs8GT6rzWeoJmu-17" value="" style="points=[[0.25,0.25,0],[0.5,0,0],[0.75,0.25,0],[1,0.5,0],[0.75,0.75,0],[0.5,1,0],[0.25,0.75,0],[0,0.5,0]];shape=mxgraph.bpmn.gateway2;html=1;verticalLabelPosition=bottom;labelBackgroundColor=#ffffff;verticalAlign=top;align=center;perimeter=rhombusPerimeter;outlineConnect=0;outline=none;symbol=none;gwType=exclusive;" vertex="1" parent="mfKZD1bs8GT6rzWeoJmu-1">
          <mxGeometry x="2050" y="120" width="40" height="40" as="geometry" />
        </mxCell>
        <mxCell id="mfKZD1bs8GT6rzWeoJmu-18" value="Xóa thông tin NV" style="points=[[0.25,0,0],[0.5,0,0],[0.75,0,0],[1,0.25,0],[1,0.5,0],[1,0.75,0],[0.75,1,0],[0.5,1,0],[0.25,1,0],[0,0.75,0],[0,0.5,0],[0,0.25,0]];shape=mxgraph.bpmn.task;whiteSpace=wrap;rectStyle=rounded;size=10;html=1;container=1;expand=0;collapsible=0;taskMarker=user;" vertex="1" parent="mfKZD1bs8GT6rzWeoJmu-1">
          <mxGeometry x="2250" y="190" width="130" height="40" as="geometry" />
        </mxCell>
        <mxCell id="mfKZD1bs8GT6rzWeoJmu-19" value="Xem thông tin NV" style="points=[[0.25,0,0],[0.5,0,0],[0.75,0,0],[1,0.25,0],[1,0.5,0],[1,0.75,0],[0.75,1,0],[0.5,1,0],[0.25,1,0],[0,0.75,0],[0,0.5,0],[0,0.25,0]];shape=mxgraph.bpmn.task;whiteSpace=wrap;rectStyle=rounded;size=10;html=1;container=1;expand=0;collapsible=0;taskMarker=user;" vertex="1" parent="mfKZD1bs8GT6rzWeoJmu-1">
          <mxGeometry x="2250" y="40" width="130" height="50" as="geometry" />
        </mxCell>
        <mxCell id="mfKZD1bs8GT6rzWeoJmu-20" value="Sửa thông tin NV" style="points=[[0.25,0,0],[0.5,0,0],[0.75,0,0],[1,0.25,0],[1,0.5,0],[1,0.75,0],[0.75,1,0],[0.5,1,0],[0.25,1,0],[0,0.75,0],[0,0.5,0],[0,0.25,0]];shape=mxgraph.bpmn.task;whiteSpace=wrap;rectStyle=rounded;size=10;html=1;container=1;expand=0;collapsible=0;taskMarker=user;" vertex="1" parent="mfKZD1bs8GT6rzWeoJmu-1">
          <mxGeometry x="2250" y="115" width="130" height="50" as="geometry" />
        </mxCell>
        <mxCell id="mfKZD1bs8GT6rzWeoJmu-21" style="edgeStyle=orthogonalEdgeStyle;rounded=0;orthogonalLoop=1;jettySize=auto;html=1;entryX=0;entryY=0.5;entryDx=0;entryDy=0;entryPerimeter=0;" edge="1" parent="mfKZD1bs8GT6rzWeoJmu-1" source="mfKZD1bs8GT6rzWeoJmu-17" target="mfKZD1bs8GT6rzWeoJmu-19">
          <mxGeometry relative="1" as="geometry">
            <Array as="points">
              <mxPoint x="2070" y="65" />
            </Array>
          </mxGeometry>
        </mxCell>
        <mxCell id="mfKZD1bs8GT6rzWeoJmu-22" style="edgeStyle=orthogonalEdgeStyle;rounded=0;orthogonalLoop=1;jettySize=auto;html=1;entryX=0;entryY=0.5;entryDx=0;entryDy=0;entryPerimeter=0;" edge="1" parent="mfKZD1bs8GT6rzWeoJmu-1" source="mfKZD1bs8GT6rzWeoJmu-17" target="mfKZD1bs8GT6rzWeoJmu-20">
          <mxGeometry relative="1" as="geometry" />
        </mxCell>
        <mxCell id="mfKZD1bs8GT6rzWeoJmu-23" style="edgeStyle=orthogonalEdgeStyle;rounded=0;orthogonalLoop=1;jettySize=auto;html=1;entryX=0;entryY=0.5;entryDx=0;entryDy=0;entryPerimeter=0;" edge="1" parent="mfKZD1bs8GT6rzWeoJmu-1" source="mfKZD1bs8GT6rzWeoJmu-17" target="mfKZD1bs8GT6rzWeoJmu-18">
          <mxGeometry relative="1" as="geometry">
            <Array as="points">
              <mxPoint x="2070" y="210" />
            </Array>
          </mxGeometry>
        </mxCell>
        <mxCell id="mfKZD1bs8GT6rzWeoJmu-24" value="" style="points=[[0.25,0.25,0],[0.5,0,0],[0.75,0.25,0],[1,0.5,0],[0.75,0.75,0],[0.5,1,0],[0.25,0.75,0],[0,0.5,0]];shape=mxgraph.bpmn.gateway2;html=1;verticalLabelPosition=bottom;labelBackgroundColor=#ffffff;verticalAlign=top;align=center;perimeter=rhombusPerimeter;outlineConnect=0;outline=none;symbol=none;gwType=exclusive;" vertex="1" parent="mfKZD1bs8GT6rzWeoJmu-1">
          <mxGeometry x="2570" y="120" width="40" height="40" as="geometry" />
        </mxCell>
        <mxCell id="mfKZD1bs8GT6rzWeoJmu-25" style="edgeStyle=orthogonalEdgeStyle;rounded=0;orthogonalLoop=1;jettySize=auto;html=1;entryX=0.5;entryY=0;entryDx=0;entryDy=0;entryPerimeter=0;" edge="1" parent="mfKZD1bs8GT6rzWeoJmu-1" source="mfKZD1bs8GT6rzWeoJmu-19" target="mfKZD1bs8GT6rzWeoJmu-24">
          <mxGeometry relative="1" as="geometry" />
        </mxCell>
        <mxCell id="mfKZD1bs8GT6rzWeoJmu-26" style="edgeStyle=orthogonalEdgeStyle;rounded=0;orthogonalLoop=1;jettySize=auto;html=1;entryX=0;entryY=0.5;entryDx=0;entryDy=0;entryPerimeter=0;" edge="1" parent="mfKZD1bs8GT6rzWeoJmu-1" source="mfKZD1bs8GT6rzWeoJmu-20" target="mfKZD1bs8GT6rzWeoJmu-24">
          <mxGeometry relative="1" as="geometry" />
        </mxCell>
        <mxCell id="mfKZD1bs8GT6rzWeoJmu-27" style="edgeStyle=orthogonalEdgeStyle;rounded=0;orthogonalLoop=1;jettySize=auto;html=1;entryX=0.5;entryY=1;entryDx=0;entryDy=0;entryPerimeter=0;" edge="1" parent="mfKZD1bs8GT6rzWeoJmu-1" source="mfKZD1bs8GT6rzWeoJmu-18" target="mfKZD1bs8GT6rzWeoJmu-24">
          <mxGeometry relative="1" as="geometry" />
        </mxCell>
        <mxCell id="mfKZD1bs8GT6rzWeoJmu-28" value="&lt;font style=&quot;font-size: 15px;&quot;&gt;Xếp lại lịch làm&lt;/font&gt;" style="points=[[0.25,0,0],[0.5,0,0],[0.75,0,0],[1,0.25,0],[1,0.5,0],[1,0.75,0],[0.75,1,0],[0.5,1,0],[0.25,1,0],[0,0.75,0],[0,0.5,0],[0,0.25,0]];shape=mxgraph.bpmn.task;whiteSpace=wrap;rectStyle=rounded;size=10;html=1;container=1;expand=0;collapsible=0;taskMarker=user;" vertex="1" parent="mfKZD1bs8GT6rzWeoJmu-1">
          <mxGeometry x="2180" y="275" width="120" height="55" as="geometry" />
        </mxCell>
        <mxCell id="mfKZD1bs8GT6rzWeoJmu-29" value="" style="points=[[0.145,0.145,0],[0.5,0,0],[0.855,0.145,0],[1,0.5,0],[0.855,0.855,0],[0.5,1,0],[0.145,0.855,0],[0,0.5,0]];shape=mxgraph.bpmn.event;html=1;verticalLabelPosition=bottom;labelBackgroundColor=#ffffff;verticalAlign=top;align=center;perimeter=ellipsePerimeter;outlineConnect=0;aspect=fixed;outline=end;symbol=terminate2;" vertex="1" parent="mfKZD1bs8GT6rzWeoJmu-1">
          <mxGeometry x="3620" y="175" width="70" height="70" as="geometry" />
        </mxCell>
        <mxCell id="mfKZD1bs8GT6rzWeoJmu-30" style="edgeStyle=orthogonalEdgeStyle;rounded=0;orthogonalLoop=1;jettySize=auto;html=1;entryX=0.5;entryY=0;entryDx=0;entryDy=0;entryPerimeter=0;" edge="1" parent="mfKZD1bs8GT6rzWeoJmu-1" source="mfKZD1bs8GT6rzWeoJmu-24" target="mfKZD1bs8GT6rzWeoJmu-29">
          <mxGeometry relative="1" as="geometry" />
        </mxCell>
        <mxCell id="mfKZD1bs8GT6rzWeoJmu-31" style="edgeStyle=orthogonalEdgeStyle;rounded=0;orthogonalLoop=1;jettySize=auto;html=1;entryX=0.5;entryY=1;entryDx=0;entryDy=0;entryPerimeter=0;" edge="1" parent="mfKZD1bs8GT6rzWeoJmu-1" source="mfKZD1bs8GT6rzWeoJmu-28" target="mfKZD1bs8GT6rzWeoJmu-29">
          <mxGeometry relative="1" as="geometry" />
        </mxCell>
        <mxCell id="mfKZD1bs8GT6rzWeoJmu-32" value="&lt;font style=&quot;font-size: 20px;&quot;&gt;HỆ THỐNG&lt;/font&gt;" style="swimlane;html=1;startSize=40;fontStyle=1;collapsible=0;horizontal=0;swimlaneLine=1;swimlaneFillColor=#ffffff;strokeWidth=2;whiteSpace=wrap;fillColor=#dae8fc;gradientColor=#7ea6e0;strokeColor=#6c8ebf;fontSize=14;" vertex="1" parent="1">
          <mxGeometry x="40" y="100" width="3950" height="500" as="geometry" />
        </mxCell>
        <mxCell id="mfKZD1bs8GT6rzWeoJmu-33" value="&lt;font style=&quot;font-size: 14px;&quot;&gt;Xác thực thông tin đăng kí&lt;/font&gt;" style="points=[[0.25,0,0],[0.5,0,0],[0.75,0,0],[1,0.25,0],[1,0.5,0],[1,0.75,0],[0.75,1,0],[0.5,1,0],[0.25,1,0],[0,0.75,0],[0,0.5,0],[0,0.25,0]];shape=mxgraph.bpmn.task;whiteSpace=wrap;rectStyle=rounded;size=10;html=1;container=1;expand=0;collapsible=0;taskMarker=service;" vertex="1" parent="mfKZD1bs8GT6rzWeoJmu-32">
          <mxGeometry x="460" y="190" width="130" height="60" as="geometry" />
        </mxCell>
        <mxCell id="mfKZD1bs8GT6rzWeoJmu-34" value="" style="points=[[0.25,0.25,0],[0.5,0,0],[0.75,0.25,0],[1,0.5,0],[0.75,0.75,0],[0.5,1,0],[0.25,0.75,0],[0,0.5,0]];shape=mxgraph.bpmn.gateway2;html=1;verticalLabelPosition=bottom;labelBackgroundColor=#ffffff;verticalAlign=top;align=center;perimeter=rhombusPerimeter;outlineConnect=0;outline=none;symbol=none;gwType=exclusive;" vertex="1" parent="mfKZD1bs8GT6rzWeoJmu-32">
          <mxGeometry x="630" y="200" width="40" height="40" as="geometry" />
        </mxCell>
        <mxCell id="mfKZD1bs8GT6rzWeoJmu-35" style="edgeStyle=orthogonalEdgeStyle;rounded=0;orthogonalLoop=1;jettySize=auto;html=1;entryX=0;entryY=0.5;entryDx=0;entryDy=0;entryPerimeter=0;" edge="1" parent="mfKZD1bs8GT6rzWeoJmu-32" source="mfKZD1bs8GT6rzWeoJmu-33" target="mfKZD1bs8GT6rzWeoJmu-34">
          <mxGeometry relative="1" as="geometry" />
        </mxCell>
        <mxCell id="mfKZD1bs8GT6rzWeoJmu-36" value="&lt;font style=&quot;font-size: 14px;&quot;&gt;Xác thực hoàn thành đăng kí&lt;/font&gt;" style="points=[[0.25,0,0],[0.5,0,0],[0.75,0,0],[1,0.25,0],[1,0.5,0],[1,0.75,0],[0.75,1,0],[0.5,1,0],[0.25,1,0],[0,0.75,0],[0,0.5,0],[0,0.25,0]];shape=mxgraph.bpmn.task;whiteSpace=wrap;rectStyle=rounded;size=10;html=1;container=1;expand=0;collapsible=0;taskMarker=service;" vertex="1" parent="mfKZD1bs8GT6rzWeoJmu-32">
          <mxGeometry x="790" y="270" width="130" height="50" as="geometry" />
        </mxCell>
        <mxCell id="mfKZD1bs8GT6rzWeoJmu-37" value="&lt;font style=&quot;font-size: 14px;&quot;&gt;Yêu cầu nhập lại&lt;/font&gt;" style="points=[[0.25,0,0],[0.5,0,0],[0.75,0,0],[1,0.25,0],[1,0.5,0],[1,0.75,0],[0.75,1,0],[0.5,1,0],[0.25,1,0],[0,0.75,0],[0,0.5,0],[0,0.25,0]];shape=mxgraph.bpmn.task;whiteSpace=wrap;rectStyle=rounded;size=10;html=1;container=1;expand=0;collapsible=0;taskMarker=service;" vertex="1" parent="mfKZD1bs8GT6rzWeoJmu-32">
          <mxGeometry x="800" y="195" width="120" height="50" as="geometry" />
        </mxCell>
        <mxCell id="mfKZD1bs8GT6rzWeoJmu-38" style="edgeStyle=orthogonalEdgeStyle;rounded=0;orthogonalLoop=1;jettySize=auto;html=1;entryX=0;entryY=0.5;entryDx=0;entryDy=0;entryPerimeter=0;exitX=1;exitY=0.5;exitDx=0;exitDy=0;exitPerimeter=0;" edge="1" parent="mfKZD1bs8GT6rzWeoJmu-32" source="mfKZD1bs8GT6rzWeoJmu-34" target="mfKZD1bs8GT6rzWeoJmu-37">
          <mxGeometry relative="1" as="geometry">
            <Array as="points">
              <mxPoint x="790" y="220" />
            </Array>
          </mxGeometry>
        </mxCell>
        <mxCell id="mfKZD1bs8GT6rzWeoJmu-39" value="&lt;font style=&quot;font-size: 15px;&quot;&gt;Thông tin thiếu&lt;/font&gt;" style="edgeLabel;html=1;align=center;verticalAlign=middle;resizable=0;points=[];" vertex="1" connectable="0" parent="mfKZD1bs8GT6rzWeoJmu-38">
          <mxGeometry x="-0.3307" y="-2" relative="1" as="geometry">
            <mxPoint x="16" y="-2" as="offset" />
          </mxGeometry>
        </mxCell>
        <mxCell id="mfKZD1bs8GT6rzWeoJmu-40" style="edgeStyle=orthogonalEdgeStyle;rounded=0;orthogonalLoop=1;jettySize=auto;html=1;entryX=0;entryY=0.5;entryDx=0;entryDy=0;entryPerimeter=0;exitX=0.5;exitY=1;exitDx=0;exitDy=0;exitPerimeter=0;" edge="1" parent="mfKZD1bs8GT6rzWeoJmu-32" source="mfKZD1bs8GT6rzWeoJmu-34" target="mfKZD1bs8GT6rzWeoJmu-36">
          <mxGeometry relative="1" as="geometry">
            <Array as="points">
              <mxPoint x="650" y="295" />
            </Array>
          </mxGeometry>
        </mxCell>
        <mxCell id="mfKZD1bs8GT6rzWeoJmu-41" value="&lt;font style=&quot;font-size: 15px;&quot;&gt;Thông tin đủ&lt;/font&gt;" style="edgeLabel;html=1;align=center;verticalAlign=middle;resizable=0;points=[];" vertex="1" connectable="0" parent="mfKZD1bs8GT6rzWeoJmu-40">
          <mxGeometry x="-0.1064" relative="1" as="geometry">
            <mxPoint x="28" as="offset" />
          </mxGeometry>
        </mxCell>
        <mxCell id="mfKZD1bs8GT6rzWeoJmu-42" value="Xác thực thông tin đăng nhập" style="points=[[0.25,0,0],[0.5,0,0],[0.75,0,0],[1,0.25,0],[1,0.5,0],[1,0.75,0],[0.75,1,0],[0.5,1,0],[0.25,1,0],[0,0.75,0],[0,0.5,0],[0,0.25,0]];shape=mxgraph.bpmn.task;whiteSpace=wrap;rectStyle=rounded;size=10;html=1;container=1;expand=0;collapsible=0;taskMarker=service;" vertex="1" parent="mfKZD1bs8GT6rzWeoJmu-32">
          <mxGeometry x="960" y="230" width="130" height="60" as="geometry" />
        </mxCell>
        <mxCell id="mfKZD1bs8GT6rzWeoJmu-43" value="" style="points=[[0.25,0.25,0],[0.5,0,0],[0.75,0.25,0],[1,0.5,0],[0.75,0.75,0],[0.5,1,0],[0.25,0.75,0],[0,0.5,0]];shape=mxgraph.bpmn.gateway2;html=1;verticalLabelPosition=bottom;labelBackgroundColor=#ffffff;verticalAlign=top;align=center;perimeter=rhombusPerimeter;outlineConnect=0;outline=none;symbol=none;gwType=exclusive;" vertex="1" parent="mfKZD1bs8GT6rzWeoJmu-32">
          <mxGeometry x="1140" y="242.5" width="40" height="35" as="geometry" />
        </mxCell>
        <mxCell id="mfKZD1bs8GT6rzWeoJmu-44" value="Yêu cầu đăng nhập lại" style="points=[[0.25,0,0],[0.5,0,0],[0.75,0,0],[1,0.25,0],[1,0.5,0],[1,0.75,0],[0.75,1,0],[0.5,1,0],[0.25,1,0],[0,0.75,0],[0,0.5,0],[0,0.25,0]];shape=mxgraph.bpmn.task;whiteSpace=wrap;rectStyle=rounded;size=10;html=1;container=1;expand=0;collapsible=0;taskMarker=service;fontSize=14;" vertex="1" parent="mfKZD1bs8GT6rzWeoJmu-32">
          <mxGeometry x="1400" y="230" width="140" height="60" as="geometry" />
        </mxCell>
        <mxCell id="mfKZD1bs8GT6rzWeoJmu-45" style="edgeStyle=orthogonalEdgeStyle;rounded=0;orthogonalLoop=1;jettySize=auto;html=1;entryX=0;entryY=0.5;entryDx=0;entryDy=0;entryPerimeter=0;fontSize=13;" edge="1" parent="mfKZD1bs8GT6rzWeoJmu-32" source="mfKZD1bs8GT6rzWeoJmu-43" target="mfKZD1bs8GT6rzWeoJmu-44">
          <mxGeometry relative="1" as="geometry" />
        </mxCell>
        <mxCell id="mfKZD1bs8GT6rzWeoJmu-46" value="&lt;font style=&quot;font-size: 13px;&quot;&gt;Xác thực thông tin sai &amp;lt;= 3 lần&lt;/font&gt;" style="edgeLabel;html=1;align=center;verticalAlign=middle;resizable=0;points=[];" vertex="1" connectable="0" parent="mfKZD1bs8GT6rzWeoJmu-45">
          <mxGeometry x="-0.5232" y="-1" relative="1" as="geometry">
            <mxPoint x="51" y="-1" as="offset" />
          </mxGeometry>
        </mxCell>
        <mxCell id="mfKZD1bs8GT6rzWeoJmu-47" value="" style="points=[[0.25,0.25,0],[0.5,0,0],[0.75,0.25,0],[1,0.5,0],[0.75,0.75,0],[0.5,1,0],[0.25,0.75,0],[0,0.5,0]];shape=mxgraph.bpmn.gateway2;html=1;verticalLabelPosition=bottom;labelBackgroundColor=#ffffff;verticalAlign=top;align=center;perimeter=rhombusPerimeter;outlineConnect=0;outline=none;symbol=none;gwType=exclusive;" vertex="1" parent="mfKZD1bs8GT6rzWeoJmu-32">
          <mxGeometry x="1560" y="242.5" width="40" height="35" as="geometry" />
        </mxCell>
        <mxCell id="mfKZD1bs8GT6rzWeoJmu-48" style="edgeStyle=orthogonalEdgeStyle;rounded=0;orthogonalLoop=1;jettySize=auto;html=1;entryX=0;entryY=0.5;entryDx=0;entryDy=0;entryPerimeter=0;" edge="1" parent="mfKZD1bs8GT6rzWeoJmu-32" source="mfKZD1bs8GT6rzWeoJmu-42" target="mfKZD1bs8GT6rzWeoJmu-43">
          <mxGeometry relative="1" as="geometry" />
        </mxCell>
        <mxCell id="mfKZD1bs8GT6rzWeoJmu-49" style="edgeStyle=orthogonalEdgeStyle;rounded=0;orthogonalLoop=1;jettySize=auto;html=1;entryX=0;entryY=0.5;entryDx=0;entryDy=0;entryPerimeter=0;" edge="1" parent="mfKZD1bs8GT6rzWeoJmu-32" source="mfKZD1bs8GT6rzWeoJmu-44" target="mfKZD1bs8GT6rzWeoJmu-47">
          <mxGeometry relative="1" as="geometry" />
        </mxCell>
        <mxCell id="mfKZD1bs8GT6rzWeoJmu-50" value="&lt;font style=&quot;font-size: 14px;&quot;&gt;Tạo bảng đăng kí lịch làm&lt;/font&gt;" style="points=[[0.25,0,0],[0.5,0,0],[0.75,0,0],[1,0.25,0],[1,0.5,0],[1,0.75,0],[0.75,1,0],[0.5,1,0],[0.25,1,0],[0,0.75,0],[0,0.5,0],[0,0.25,0]];shape=mxgraph.bpmn.task;whiteSpace=wrap;rectStyle=rounded;size=10;html=1;container=1;expand=0;collapsible=0;taskMarker=service;" vertex="1" parent="mfKZD1bs8GT6rzWeoJmu-32">
          <mxGeometry x="2060" y="200" width="140" height="70" as="geometry" />
        </mxCell>
        <mxCell id="mfKZD1bs8GT6rzWeoJmu-51" value="&lt;font style=&quot;font-size: 14px;&quot;&gt;Yêu cầu quét lại mã&lt;/font&gt;" style="points=[[0.25,0,0],[0.5,0,0],[0.75,0,0],[1,0.25,0],[1,0.5,0],[1,0.75,0],[0.75,1,0],[0.5,1,0],[0.25,1,0],[0,0.75,0],[0,0.5,0],[0,0.25,0]];shape=mxgraph.bpmn.task;whiteSpace=wrap;rectStyle=rounded;size=10;html=1;container=1;expand=0;collapsible=0;taskMarker=service;" vertex="1" parent="mfKZD1bs8GT6rzWeoJmu-32">
          <mxGeometry x="2520" y="240" width="130" height="60" as="geometry" />
        </mxCell>
        <mxCell id="mfKZD1bs8GT6rzWeoJmu-52" value="&lt;font style=&quot;font-size: 14px;&quot;&gt;Thông báo quét không thành công&lt;/font&gt;" style="points=[[0.25,0,0],[0.5,0,0],[0.75,0,0],[1,0.25,0],[1,0.5,0],[1,0.75,0],[0.75,1,0],[0.5,1,0],[0.25,1,0],[0,0.75,0],[0,0.5,0],[0,0.25,0]];shape=mxgraph.bpmn.task;whiteSpace=wrap;rectStyle=rounded;size=10;html=1;container=1;expand=0;collapsible=0;taskMarker=service;" vertex="1" parent="mfKZD1bs8GT6rzWeoJmu-32">
          <mxGeometry x="2340" y="240" width="130" height="60" as="geometry" />
        </mxCell>
        <mxCell id="mfKZD1bs8GT6rzWeoJmu-53" style="edgeStyle=orthogonalEdgeStyle;rounded=0;orthogonalLoop=1;jettySize=auto;html=1;" edge="1" parent="mfKZD1bs8GT6rzWeoJmu-32" source="mfKZD1bs8GT6rzWeoJmu-54" target="mfKZD1bs8GT6rzWeoJmu-56">
          <mxGeometry relative="1" as="geometry" />
        </mxCell>
        <mxCell id="mfKZD1bs8GT6rzWeoJmu-54" value="&lt;font style=&quot;font-size: 14px;&quot;&gt;Thông báo quét mã thành công&lt;/font&gt;" style="points=[[0.25,0,0],[0.5,0,0],[0.75,0,0],[1,0.25,0],[1,0.5,0],[1,0.75,0],[0.75,1,0],[0.5,1,0],[0.25,1,0],[0,0.75,0],[0,0.5,0],[0,0.25,0]];shape=mxgraph.bpmn.task;whiteSpace=wrap;rectStyle=rounded;size=10;html=1;container=1;expand=0;collapsible=0;taskMarker=service;" vertex="1" parent="mfKZD1bs8GT6rzWeoJmu-32">
          <mxGeometry x="2340" y="130" width="130" height="60" as="geometry" />
        </mxCell>
        <mxCell id="mfKZD1bs8GT6rzWeoJmu-55" style="edgeStyle=orthogonalEdgeStyle;rounded=0;orthogonalLoop=1;jettySize=auto;html=1;entryX=0;entryY=0.5;entryDx=0;entryDy=0;entryPerimeter=0;" edge="1" parent="mfKZD1bs8GT6rzWeoJmu-32" source="mfKZD1bs8GT6rzWeoJmu-52" target="mfKZD1bs8GT6rzWeoJmu-51">
          <mxGeometry relative="1" as="geometry" />
        </mxCell>
        <mxCell id="mfKZD1bs8GT6rzWeoJmu-56" value="&lt;font style=&quot;font-size: 14px;&quot;&gt;Tính số giờ nhân viên đã làm trong ngày&lt;/font&gt;" style="points=[[0.25,0,0],[0.5,0,0],[0.75,0,0],[1,0.25,0],[1,0.5,0],[1,0.75,0],[0.75,1,0],[0.5,1,0],[0.25,1,0],[0,0.75,0],[0,0.5,0],[0,0.25,0]];shape=mxgraph.bpmn.task;whiteSpace=wrap;rectStyle=rounded;size=10;html=1;container=1;expand=0;collapsible=0;taskMarker=service;" vertex="1" parent="mfKZD1bs8GT6rzWeoJmu-32">
          <mxGeometry x="2520" y="130" width="150" height="60" as="geometry" />
        </mxCell>
        <mxCell id="mfKZD1bs8GT6rzWeoJmu-57" value="" style="points=[[0.25,0.25,0],[0.5,0,0],[0.75,0.25,0],[1,0.5,0],[0.75,0.75,0],[0.5,1,0],[0.25,0.75,0],[0,0.5,0]];shape=mxgraph.bpmn.gateway2;html=1;verticalLabelPosition=bottom;labelBackgroundColor=#ffffff;verticalAlign=top;align=center;perimeter=rhombusPerimeter;outlineConnect=0;outline=none;symbol=none;gwType=parallel;" vertex="1" parent="mfKZD1bs8GT6rzWeoJmu-32">
          <mxGeometry x="2710" y="140" width="40" height="40" as="geometry" />
        </mxCell>
        <mxCell id="mfKZD1bs8GT6rzWeoJmu-58" style="edgeStyle=orthogonalEdgeStyle;rounded=0;orthogonalLoop=1;jettySize=auto;html=1;entryX=0;entryY=0.5;entryDx=0;entryDy=0;entryPerimeter=0;" edge="1" parent="mfKZD1bs8GT6rzWeoJmu-32" source="mfKZD1bs8GT6rzWeoJmu-56" target="mfKZD1bs8GT6rzWeoJmu-57">
          <mxGeometry relative="1" as="geometry" />
        </mxCell>
        <mxCell id="mfKZD1bs8GT6rzWeoJmu-59" value="&lt;font style=&quot;font-size: 14px;&quot;&gt;Tính tiền thưởng&lt;/font&gt;" style="points=[[0.25,0,0],[0.5,0,0],[0.75,0,0],[1,0.25,0],[1,0.5,0],[1,0.75,0],[0.75,1,0],[0.5,1,0],[0.25,1,0],[0,0.75,0],[0,0.5,0],[0,0.25,0]];shape=mxgraph.bpmn.task;whiteSpace=wrap;rectStyle=rounded;size=10;html=1;container=1;expand=0;collapsible=0;taskMarker=service;" vertex="1" parent="mfKZD1bs8GT6rzWeoJmu-32">
          <mxGeometry x="2760" y="170" width="160" height="50" as="geometry" />
        </mxCell>
        <mxCell id="mfKZD1bs8GT6rzWeoJmu-60" value="&lt;font style=&quot;font-size: 14px;&quot;&gt;Tổng hợp số giờ nhân viên đã làm trong tháng&lt;/font&gt;" style="points=[[0.25,0,0],[0.5,0,0],[0.75,0,0],[1,0.25,0],[1,0.5,0],[1,0.75,0],[0.75,1,0],[0.5,1,0],[0.25,1,0],[0,0.75,0],[0,0.5,0],[0,0.25,0]];shape=mxgraph.bpmn.task;whiteSpace=wrap;rectStyle=rounded;size=10;html=1;container=1;expand=0;collapsible=0;taskMarker=service;" vertex="1" parent="mfKZD1bs8GT6rzWeoJmu-32">
          <mxGeometry x="2760" y="80" width="160" height="60" as="geometry" />
        </mxCell>
        <mxCell id="mfKZD1bs8GT6rzWeoJmu-61" style="edgeStyle=orthogonalEdgeStyle;rounded=0;orthogonalLoop=1;jettySize=auto;html=1;entryX=0;entryY=0.5;entryDx=0;entryDy=0;entryPerimeter=0;" edge="1" parent="mfKZD1bs8GT6rzWeoJmu-32" source="mfKZD1bs8GT6rzWeoJmu-57" target="mfKZD1bs8GT6rzWeoJmu-60">
          <mxGeometry relative="1" as="geometry">
            <Array as="points">
              <mxPoint x="2730" y="110" />
            </Array>
          </mxGeometry>
        </mxCell>
        <mxCell id="mfKZD1bs8GT6rzWeoJmu-62" style="edgeStyle=orthogonalEdgeStyle;rounded=0;orthogonalLoop=1;jettySize=auto;html=1;entryX=0;entryY=0.5;entryDx=0;entryDy=0;entryPerimeter=0;" edge="1" parent="mfKZD1bs8GT6rzWeoJmu-32" source="mfKZD1bs8GT6rzWeoJmu-57" target="mfKZD1bs8GT6rzWeoJmu-59">
          <mxGeometry relative="1" as="geometry">
            <Array as="points">
              <mxPoint x="2730" y="195" />
            </Array>
          </mxGeometry>
        </mxCell>
        <mxCell id="mfKZD1bs8GT6rzWeoJmu-63" style="edgeStyle=orthogonalEdgeStyle;rounded=0;orthogonalLoop=1;jettySize=auto;html=1;" edge="1" parent="mfKZD1bs8GT6rzWeoJmu-32" source="mfKZD1bs8GT6rzWeoJmu-64" target="mfKZD1bs8GT6rzWeoJmu-68">
          <mxGeometry relative="1" as="geometry" />
        </mxCell>
        <mxCell id="mfKZD1bs8GT6rzWeoJmu-64" value="" style="points=[[0.25,0.25,0],[0.5,0,0],[0.75,0.25,0],[1,0.5,0],[0.75,0.75,0],[0.5,1,0],[0.25,0.75,0],[0,0.5,0]];shape=mxgraph.bpmn.gateway2;html=1;verticalLabelPosition=bottom;labelBackgroundColor=#ffffff;verticalAlign=top;align=center;perimeter=rhombusPerimeter;outlineConnect=0;outline=none;symbol=none;gwType=parallel;" vertex="1" parent="mfKZD1bs8GT6rzWeoJmu-32">
          <mxGeometry x="2935" y="140" width="40" height="40" as="geometry" />
        </mxCell>
        <mxCell id="mfKZD1bs8GT6rzWeoJmu-65" style="edgeStyle=orthogonalEdgeStyle;rounded=0;orthogonalLoop=1;jettySize=auto;html=1;entryX=0.5;entryY=0;entryDx=0;entryDy=0;entryPerimeter=0;" edge="1" parent="mfKZD1bs8GT6rzWeoJmu-32" source="mfKZD1bs8GT6rzWeoJmu-60" target="mfKZD1bs8GT6rzWeoJmu-64">
          <mxGeometry relative="1" as="geometry" />
        </mxCell>
        <mxCell id="mfKZD1bs8GT6rzWeoJmu-66" style="edgeStyle=orthogonalEdgeStyle;rounded=0;orthogonalLoop=1;jettySize=auto;html=1;entryX=0.5;entryY=1;entryDx=0;entryDy=0;entryPerimeter=0;" edge="1" parent="mfKZD1bs8GT6rzWeoJmu-32" source="mfKZD1bs8GT6rzWeoJmu-59" target="mfKZD1bs8GT6rzWeoJmu-64">
          <mxGeometry relative="1" as="geometry">
            <Array as="points">
              <mxPoint x="2955" y="200" />
            </Array>
          </mxGeometry>
        </mxCell>
        <mxCell id="mfKZD1bs8GT6rzWeoJmu-67" style="edgeStyle=orthogonalEdgeStyle;rounded=0;orthogonalLoop=1;jettySize=auto;html=1;" edge="1" parent="mfKZD1bs8GT6rzWeoJmu-32" source="mfKZD1bs8GT6rzWeoJmu-68">
          <mxGeometry relative="1" as="geometry">
            <mxPoint x="3610" y="160" as="targetPoint" />
          </mxGeometry>
        </mxCell>
        <mxCell id="mfKZD1bs8GT6rzWeoJmu-68" value="&lt;font style=&quot;font-size: 14px;&quot;&gt;Tính tiền lương nhân viên&lt;/font&gt;" style="points=[[0.25,0,0],[0.5,0,0],[0.75,0,0],[1,0.25,0],[1,0.5,0],[1,0.75,0],[0.75,1,0],[0.5,1,0],[0.25,1,0],[0,0.75,0],[0,0.5,0],[0,0.25,0]];shape=mxgraph.bpmn.task;whiteSpace=wrap;rectStyle=rounded;size=10;html=1;container=1;expand=0;collapsible=0;taskMarker=service;" vertex="1" parent="mfKZD1bs8GT6rzWeoJmu-32">
          <mxGeometry x="3010" y="130" width="130" height="60" as="geometry" />
        </mxCell>
        <mxCell id="mfKZD1bs8GT6rzWeoJmu-69" value="" style="points=[[0.145,0.145,0],[0.5,0,0],[0.855,0.145,0],[1,0.5,0],[0.855,0.855,0],[0.5,1,0],[0.145,0.855,0],[0,0.5,0]];shape=mxgraph.bpmn.event;html=1;verticalLabelPosition=bottom;labelBackgroundColor=#ffffff;verticalAlign=top;align=center;perimeter=ellipsePerimeter;outlineConnect=0;aspect=fixed;outline=end;symbol=message;" vertex="1" parent="mfKZD1bs8GT6rzWeoJmu-32">
          <mxGeometry x="3610" y="380" width="70" height="70" as="geometry" />
        </mxCell>
        <mxCell id="mfKZD1bs8GT6rzWeoJmu-70" style="edgeStyle=orthogonalEdgeStyle;rounded=0;orthogonalLoop=1;jettySize=auto;html=1;entryX=0;entryY=0.5;entryDx=0;entryDy=0;entryPerimeter=0;" edge="1" parent="mfKZD1bs8GT6rzWeoJmu-32" source="mfKZD1bs8GT6rzWeoJmu-43" target="mfKZD1bs8GT6rzWeoJmu-69">
          <mxGeometry relative="1" as="geometry">
            <Array as="points">
              <mxPoint x="1170" y="415" />
            </Array>
          </mxGeometry>
        </mxCell>
        <mxCell id="mfKZD1bs8GT6rzWeoJmu-71" value="&lt;font style=&quot;font-size: 15px;&quot;&gt;Xác thực thông tin sai &amp;gt; 3 lần&lt;/font&gt;" style="edgeLabel;html=1;align=center;verticalAlign=middle;resizable=0;points=[];" vertex="1" connectable="0" parent="mfKZD1bs8GT6rzWeoJmu-70">
          <mxGeometry x="-0.7803" y="-2" relative="1" as="geometry">
            <mxPoint as="offset" />
          </mxGeometry>
        </mxCell>
        <mxCell id="mfKZD1bs8GT6rzWeoJmu-72" value="&lt;font style=&quot;font-size: 16px;&quot;&gt;Thông báo lỗi&lt;/font&gt;" style="shape=mxgraph.bpmn.data;labelPosition=center;verticalLabelPosition=bottom;align=center;verticalAlign=top;size=15;html=1;bpmnTransferType=output;" vertex="1" parent="mfKZD1bs8GT6rzWeoJmu-32">
          <mxGeometry x="3770" y="375" width="50" height="80" as="geometry" />
        </mxCell>
        <mxCell id="mfKZD1bs8GT6rzWeoJmu-73" value="" style="points=[[0.145,0.145,0],[0.5,0,0],[0.855,0.145,0],[1,0.5,0],[0.855,0.855,0],[0.5,1,0],[0.145,0.855,0],[0,0.5,0]];shape=mxgraph.bpmn.event;html=1;verticalLabelPosition=bottom;labelBackgroundColor=#ffffff;verticalAlign=top;align=center;perimeter=ellipsePerimeter;outlineConnect=0;aspect=fixed;outline=end;symbol=message;" vertex="1" parent="mfKZD1bs8GT6rzWeoJmu-32">
          <mxGeometry x="3610" y="125" width="65" height="65" as="geometry" />
        </mxCell>
        <mxCell id="mfKZD1bs8GT6rzWeoJmu-74" value="&lt;font style=&quot;font-size: 15px;&quot;&gt;Bill tiền lương&lt;/font&gt;" style="shape=mxgraph.bpmn.data;labelPosition=center;verticalLabelPosition=bottom;align=center;verticalAlign=top;size=15;html=1;bpmnTransferType=output;fontSize=15;" vertex="1" parent="mfKZD1bs8GT6rzWeoJmu-32">
          <mxGeometry x="3770" y="117.5" width="50" height="80" as="geometry" />
        </mxCell>
        <mxCell id="mfKZD1bs8GT6rzWeoJmu-75" value="" style="points=[[0.145,0.145,0],[0.5,0,0],[0.855,0.145,0],[1,0.5,0],[0.855,0.855,0],[0.5,1,0],[0.145,0.855,0],[0,0.5,0]];shape=mxgraph.bpmn.event;html=1;verticalLabelPosition=bottom;labelBackgroundColor=#ffffff;verticalAlign=top;align=center;perimeter=ellipsePerimeter;outlineConnect=0;aspect=fixed;outline=standard;symbol=general;" vertex="1" parent="mfKZD1bs8GT6rzWeoJmu-32">
          <mxGeometry x="62" y="237.5" width="40" height="40" as="geometry" />
        </mxCell>
        <mxCell id="mfKZD1bs8GT6rzWeoJmu-76" value="Yêu cầu Đăng nhập/ Đăng ký" style="points=[[0.25,0,0],[0.5,0,0],[0.75,0,0],[1,0.25,0],[1,0.5,0],[1,0.75,0],[0.75,1,0],[0.5,1,0],[0.25,1,0],[0,0.75,0],[0,0.5,0],[0,0.25,0]];shape=mxgraph.bpmn.task;whiteSpace=wrap;rectStyle=rounded;size=10;html=1;container=1;expand=0;collapsible=0;taskMarker=service;" vertex="1" parent="mfKZD1bs8GT6rzWeoJmu-32">
          <mxGeometry x="129" y="217.5" width="120" height="80" as="geometry" />
        </mxCell>
        <mxCell id="mfKZD1bs8GT6rzWeoJmu-77" style="edgeStyle=orthogonalEdgeStyle;rounded=0;orthogonalLoop=1;jettySize=auto;html=1;entryX=0;entryY=0.5;entryDx=0;entryDy=0;entryPerimeter=0;" edge="1" parent="mfKZD1bs8GT6rzWeoJmu-32" source="mfKZD1bs8GT6rzWeoJmu-75" target="mfKZD1bs8GT6rzWeoJmu-76">
          <mxGeometry relative="1" as="geometry" />
        </mxCell>
        <mxCell id="mfKZD1bs8GT6rzWeoJmu-78" value="" style="points=[[0.25,0.25,0],[0.5,0,0],[0.75,0.25,0],[1,0.5,0],[0.75,0.75,0],[0.5,1,0],[0.25,0.75,0],[0,0.5,0]];shape=mxgraph.bpmn.gateway2;html=1;verticalLabelPosition=bottom;labelBackgroundColor=#ffffff;verticalAlign=top;align=center;perimeter=rhombusPerimeter;outlineConnect=0;outline=none;symbol=none;gwType=exclusive;" vertex="1" parent="mfKZD1bs8GT6rzWeoJmu-32">
          <mxGeometry x="290" y="237.5" width="40" height="40" as="geometry" />
        </mxCell>
        <mxCell id="mfKZD1bs8GT6rzWeoJmu-79" style="edgeStyle=orthogonalEdgeStyle;rounded=0;orthogonalLoop=1;jettySize=auto;html=1;entryX=0;entryY=0.5;entryDx=0;entryDy=0;entryPerimeter=0;" edge="1" parent="mfKZD1bs8GT6rzWeoJmu-32" source="mfKZD1bs8GT6rzWeoJmu-76" target="mfKZD1bs8GT6rzWeoJmu-78">
          <mxGeometry relative="1" as="geometry" />
        </mxCell>
        <mxCell id="mfKZD1bs8GT6rzWeoJmu-80" value="&lt;span style=&quot;font-size: 14px;&quot;&gt;Hiển thị thông tin nhân viên&lt;/span&gt;" style="points=[[0.25,0,0],[0.5,0,0],[0.75,0,0],[1,0.25,0],[1,0.5,0],[1,0.75,0],[0.75,1,0],[0.5,1,0],[0.25,1,0],[0,0.75,0],[0,0.5,0],[0,0.25,0]];shape=mxgraph.bpmn.task;whiteSpace=wrap;rectStyle=rounded;size=10;html=1;container=1;expand=0;collapsible=0;taskMarker=service;" vertex="1" parent="mfKZD1bs8GT6rzWeoJmu-32">
          <mxGeometry x="2780" y="300" width="130" height="60" as="geometry" />
        </mxCell>
        <mxCell id="mfKZD1bs8GT6rzWeoJmu-81" value="" style="edgeStyle=elbowEdgeStyle;fontSize=12;html=1;endFill=0;startFill=0;endSize=6;startSize=6;dashed=1;dashPattern=1 4;endArrow=openThin;startArrow=none;rounded=0;exitX=1;exitY=0.5;exitDx=0;exitDy=0;exitPerimeter=0;entryX=0;entryY=0.5;entryDx=0;entryDy=0;entryPerimeter=0;" edge="1" parent="mfKZD1bs8GT6rzWeoJmu-32" source="mfKZD1bs8GT6rzWeoJmu-73" target="mfKZD1bs8GT6rzWeoJmu-74">
          <mxGeometry width="160" relative="1" as="geometry">
            <mxPoint x="3540" y="300" as="sourcePoint" />
            <mxPoint x="3700" y="300" as="targetPoint" />
          </mxGeometry>
        </mxCell>
        <mxCell id="mfKZD1bs8GT6rzWeoJmu-82" value="" style="edgeStyle=elbowEdgeStyle;fontSize=12;html=1;endFill=0;startFill=0;endSize=6;startSize=6;dashed=1;dashPattern=1 4;endArrow=openThin;startArrow=none;rounded=0;exitX=1;exitY=0.5;exitDx=0;exitDy=0;exitPerimeter=0;entryX=0;entryY=0.5;entryDx=0;entryDy=0;entryPerimeter=0;" edge="1" parent="mfKZD1bs8GT6rzWeoJmu-32" source="mfKZD1bs8GT6rzWeoJmu-69" target="mfKZD1bs8GT6rzWeoJmu-72">
          <mxGeometry width="160" relative="1" as="geometry">
            <mxPoint x="3685" y="168" as="sourcePoint" />
            <mxPoint x="3780" y="168" as="targetPoint" />
          </mxGeometry>
        </mxCell>
        <mxCell id="mfKZD1bs8GT6rzWeoJmu-83" value="&lt;font style=&quot;font-size: 20px;&quot;&gt;&lt;b&gt;&amp;nbsp;NHÂN VIÊN&lt;/b&gt;&lt;/font&gt;" style="swimlane;html=1;startSize=40;fontStyle=0;collapsible=0;horizontal=0;swimlaneLine=1;swimlaneFillColor=#ffffff;strokeWidth=2;whiteSpace=wrap;fillColor=#dae8fc;gradientColor=#7ea6e0;strokeColor=#6c8ebf;" vertex="1" parent="1">
          <mxGeometry x="40" y="600" width="3950" height="540" as="geometry" />
        </mxCell>
        <mxCell id="mfKZD1bs8GT6rzWeoJmu-84" value="" style="points=[[0.25,0.25,0],[0.5,0,0],[0.75,0.25,0],[1,0.5,0],[0.75,0.75,0],[0.5,1,0],[0.25,0.75,0],[0,0.5,0]];shape=mxgraph.bpmn.gateway2;html=1;verticalLabelPosition=bottom;labelBackgroundColor=#ffffff;verticalAlign=top;align=center;perimeter=rhombusPerimeter;outlineConnect=0;outline=none;symbol=none;gwType=exclusive;" vertex="1" parent="mfKZD1bs8GT6rzWeoJmu-83">
          <mxGeometry x="140" y="120" width="40" height="40" as="geometry" />
        </mxCell>
        <mxCell id="mfKZD1bs8GT6rzWeoJmu-85" value="Chọn đăng kí tài khoản" style="points=[[0.25,0,0],[0.5,0,0],[0.75,0,0],[1,0.25,0],[1,0.5,0],[1,0.75,0],[0.75,1,0],[0.5,1,0],[0.25,1,0],[0,0.75,0],[0,0.5,0],[0,0.25,0]];shape=mxgraph.bpmn.task;whiteSpace=wrap;rectStyle=rounded;size=10;html=1;container=1;expand=0;collapsible=0;taskMarker=user;fontSize=14;" vertex="1" parent="mfKZD1bs8GT6rzWeoJmu-83">
          <mxGeometry x="190" y="30" width="120" height="80" as="geometry" />
        </mxCell>
        <mxCell id="mfKZD1bs8GT6rzWeoJmu-86" value="&lt;span style=&quot;font-size: 14px;&quot;&gt;Tạo mã nhân viên và mật khẩu&lt;/span&gt;" style="points=[[0.25,0,0],[0.5,0,0],[0.75,0,0],[1,0.25,0],[1,0.5,0],[1,0.75,0],[0.75,1,0],[0.5,1,0],[0.25,1,0],[0,0.75,0],[0,0.5,0],[0,0.25,0]];shape=mxgraph.bpmn.task;whiteSpace=wrap;rectStyle=rounded;size=10;html=1;container=1;expand=0;collapsible=0;taskMarker=user;" vertex="1" parent="mfKZD1bs8GT6rzWeoJmu-83">
          <mxGeometry x="340" y="30" width="130" height="80" as="geometry" />
        </mxCell>
        <mxCell id="mfKZD1bs8GT6rzWeoJmu-87" style="edgeStyle=orthogonalEdgeStyle;rounded=0;orthogonalLoop=1;jettySize=auto;html=1;entryX=0.25;entryY=1;entryDx=0;entryDy=0;entryPerimeter=0;" edge="1" parent="mfKZD1bs8GT6rzWeoJmu-83" source="mfKZD1bs8GT6rzWeoJmu-84" target="mfKZD1bs8GT6rzWeoJmu-85">
          <mxGeometry relative="1" as="geometry" />
        </mxCell>
        <mxCell id="mfKZD1bs8GT6rzWeoJmu-88" style="edgeStyle=orthogonalEdgeStyle;rounded=0;orthogonalLoop=1;jettySize=auto;html=1;entryX=0;entryY=0.5;entryDx=0;entryDy=0;entryPerimeter=0;" edge="1" parent="mfKZD1bs8GT6rzWeoJmu-83" source="mfKZD1bs8GT6rzWeoJmu-85" target="mfKZD1bs8GT6rzWeoJmu-86">
          <mxGeometry relative="1" as="geometry" />
        </mxCell>
        <mxCell id="mfKZD1bs8GT6rzWeoJmu-89" value="Chọn đăng nhập với tư cách nhân viên" style="points=[[0.25,0,0],[0.5,0,0],[0.75,0,0],[1,0.25,0],[1,0.5,0],[1,0.75,0],[0.75,1,0],[0.5,1,0],[0.25,1,0],[0,0.75,0],[0,0.5,0],[0,0.25,0]];shape=mxgraph.bpmn.task;whiteSpace=wrap;rectStyle=rounded;size=10;html=1;container=1;expand=0;collapsible=0;taskMarker=user;fontSize=14;" vertex="1" parent="mfKZD1bs8GT6rzWeoJmu-83">
          <mxGeometry x="200" y="160" width="140" height="60" as="geometry" />
        </mxCell>
        <mxCell id="mfKZD1bs8GT6rzWeoJmu-90" style="edgeStyle=orthogonalEdgeStyle;rounded=0;orthogonalLoop=1;jettySize=auto;html=1;entryX=0;entryY=0.5;entryDx=0;entryDy=0;entryPerimeter=0;" edge="1" parent="mfKZD1bs8GT6rzWeoJmu-83" source="mfKZD1bs8GT6rzWeoJmu-84" target="mfKZD1bs8GT6rzWeoJmu-89">
          <mxGeometry relative="1" as="geometry">
            <Array as="points">
              <mxPoint x="160" y="190" />
            </Array>
          </mxGeometry>
        </mxCell>
        <mxCell id="mfKZD1bs8GT6rzWeoJmu-91" value="Nhập mã nhân viên" style="points=[[0.25,0,0],[0.5,0,0],[0.75,0,0],[1,0.25,0],[1,0.5,0],[1,0.75,0],[0.75,1,0],[0.5,1,0],[0.25,1,0],[0,0.75,0],[0,0.5,0],[0,0.25,0]];shape=mxgraph.bpmn.task;whiteSpace=wrap;rectStyle=rounded;size=10;html=1;container=1;expand=0;collapsible=0;taskMarker=user;fontSize=14;" vertex="1" parent="mfKZD1bs8GT6rzWeoJmu-83">
          <mxGeometry x="200" y="250" width="140" height="50" as="geometry" />
        </mxCell>
        <mxCell id="mfKZD1bs8GT6rzWeoJmu-92" style="edgeStyle=orthogonalEdgeStyle;rounded=0;orthogonalLoop=1;jettySize=auto;html=1;entryX=0.5;entryY=0;entryDx=0;entryDy=0;entryPerimeter=0;" edge="1" parent="mfKZD1bs8GT6rzWeoJmu-83" source="mfKZD1bs8GT6rzWeoJmu-89" target="mfKZD1bs8GT6rzWeoJmu-91">
          <mxGeometry relative="1" as="geometry" />
        </mxCell>
        <mxCell id="mfKZD1bs8GT6rzWeoJmu-93" value="Nhập mật khẩu" style="points=[[0.25,0,0],[0.5,0,0],[0.75,0,0],[1,0.25,0],[1,0.5,0],[1,0.75,0],[0.75,1,0],[0.5,1,0],[0.25,1,0],[0,0.75,0],[0,0.5,0],[0,0.25,0]];shape=mxgraph.bpmn.task;whiteSpace=wrap;rectStyle=rounded;size=10;html=1;container=1;expand=0;collapsible=0;taskMarker=user;fontSize=14;" vertex="1" parent="mfKZD1bs8GT6rzWeoJmu-83">
          <mxGeometry x="200" y="330" width="140" height="50" as="geometry" />
        </mxCell>
        <mxCell id="mfKZD1bs8GT6rzWeoJmu-94" style="edgeStyle=orthogonalEdgeStyle;rounded=0;orthogonalLoop=1;jettySize=auto;html=1;entryX=0.5;entryY=0;entryDx=0;entryDy=0;entryPerimeter=0;" edge="1" parent="mfKZD1bs8GT6rzWeoJmu-83" source="mfKZD1bs8GT6rzWeoJmu-91" target="mfKZD1bs8GT6rzWeoJmu-93">
          <mxGeometry relative="1" as="geometry" />
        </mxCell>
        <mxCell id="mfKZD1bs8GT6rzWeoJmu-95" value="&lt;font style=&quot;font-size: 14px;&quot;&gt;Chọn chức năng&lt;/font&gt;" style="points=[[0.25,0,0],[0.5,0,0],[0.75,0,0],[1,0.25,0],[1,0.5,0],[1,0.75,0],[0.75,1,0],[0.5,1,0],[0.25,1,0],[0,0.75,0],[0,0.5,0],[0,0.25,0]];shape=mxgraph.bpmn.task;whiteSpace=wrap;rectStyle=rounded;size=10;html=1;container=1;expand=0;collapsible=0;taskMarker=user;" vertex="1" parent="mfKZD1bs8GT6rzWeoJmu-83">
          <mxGeometry x="1620" y="160" width="140" height="80" as="geometry" />
        </mxCell>
        <mxCell id="mfKZD1bs8GT6rzWeoJmu-96" value="" style="points=[[0.25,0.25,0],[0.5,0,0],[0.75,0.25,0],[1,0.5,0],[0.75,0.75,0],[0.5,1,0],[0.25,0.75,0],[0,0.5,0]];shape=mxgraph.bpmn.gateway2;html=1;verticalLabelPosition=bottom;labelBackgroundColor=#ffffff;verticalAlign=top;align=center;perimeter=rhombusPerimeter;outlineConnect=0;outline=none;symbol=none;gwType=exclusive;" vertex="1" parent="mfKZD1bs8GT6rzWeoJmu-83">
          <mxGeometry x="1810" y="175" width="50" height="50" as="geometry" />
        </mxCell>
        <mxCell id="mfKZD1bs8GT6rzWeoJmu-97" style="edgeStyle=orthogonalEdgeStyle;rounded=0;orthogonalLoop=1;jettySize=auto;html=1;entryX=0;entryY=0.5;entryDx=0;entryDy=0;entryPerimeter=0;" edge="1" parent="mfKZD1bs8GT6rzWeoJmu-83" source="mfKZD1bs8GT6rzWeoJmu-95" target="mfKZD1bs8GT6rzWeoJmu-96">
          <mxGeometry relative="1" as="geometry" />
        </mxCell>
        <mxCell id="mfKZD1bs8GT6rzWeoJmu-98" value="&lt;font style=&quot;font-size: 15px;&quot;&gt;Quét mã QR&lt;/font&gt;" style="points=[[0.25,0,0],[0.5,0,0],[0.75,0,0],[1,0.25,0],[1,0.5,0],[1,0.75,0],[0.75,1,0],[0.5,1,0],[0.25,1,0],[0,0.75,0],[0,0.5,0],[0,0.25,0]];shape=mxgraph.bpmn.task;whiteSpace=wrap;rectStyle=rounded;size=10;html=1;container=1;expand=0;collapsible=0;taskMarker=user;" vertex="1" parent="mfKZD1bs8GT6rzWeoJmu-83">
          <mxGeometry x="1945" y="225" width="130" height="55" as="geometry" />
        </mxCell>
        <mxCell id="mfKZD1bs8GT6rzWeoJmu-99" value="&lt;font style=&quot;font-size: 15px;&quot;&gt;Tích lịch làm&lt;/font&gt;" style="points=[[0.25,0,0],[0.5,0,0],[0.75,0,0],[1,0.25,0],[1,0.5,0],[1,0.75,0],[0.75,1,0],[0.5,1,0],[0.25,1,0],[0,0.75,0],[0,0.5,0],[0,0.25,0]];shape=mxgraph.bpmn.task;whiteSpace=wrap;rectStyle=rounded;size=10;html=1;container=1;expand=0;collapsible=0;taskMarker=user;" vertex="1" parent="mfKZD1bs8GT6rzWeoJmu-83">
          <mxGeometry x="1943" y="105" width="130" height="60" as="geometry" />
        </mxCell>
        <mxCell id="mfKZD1bs8GT6rzWeoJmu-100" style="edgeStyle=orthogonalEdgeStyle;rounded=0;orthogonalLoop=1;jettySize=auto;html=1;entryX=0;entryY=0.5;entryDx=0;entryDy=0;entryPerimeter=0;" edge="1" parent="mfKZD1bs8GT6rzWeoJmu-83" source="mfKZD1bs8GT6rzWeoJmu-96" target="mfKZD1bs8GT6rzWeoJmu-99">
          <mxGeometry relative="1" as="geometry">
            <Array as="points">
              <mxPoint x="1835" y="135" />
            </Array>
          </mxGeometry>
        </mxCell>
        <mxCell id="mfKZD1bs8GT6rzWeoJmu-101" value="Nếu đăng ký lịch làm" style="edgeLabel;html=1;align=center;verticalAlign=middle;resizable=0;points=[];" vertex="1" connectable="0" parent="mfKZD1bs8GT6rzWeoJmu-100">
          <mxGeometry x="-0.0425" relative="1" as="geometry">
            <mxPoint x="-1" as="offset" />
          </mxGeometry>
        </mxCell>
        <mxCell id="mfKZD1bs8GT6rzWeoJmu-102" style="edgeStyle=orthogonalEdgeStyle;rounded=0;orthogonalLoop=1;jettySize=auto;html=1;entryX=0.5;entryY=0;entryDx=0;entryDy=0;entryPerimeter=0;exitX=1;exitY=0.5;exitDx=0;exitDy=0;exitPerimeter=0;" edge="1" parent="mfKZD1bs8GT6rzWeoJmu-83" source="mfKZD1bs8GT6rzWeoJmu-96" target="mfKZD1bs8GT6rzWeoJmu-98">
          <mxGeometry relative="1" as="geometry">
            <Array as="points">
              <mxPoint x="2010" y="200" />
            </Array>
          </mxGeometry>
        </mxCell>
        <mxCell id="mfKZD1bs8GT6rzWeoJmu-103" value="Nếu chấm công" style="edgeLabel;html=1;align=center;verticalAlign=middle;resizable=0;points=[];" vertex="1" connectable="0" parent="mfKZD1bs8GT6rzWeoJmu-102">
          <mxGeometry x="0.1218" y="-4" relative="1" as="geometry">
            <mxPoint x="-14" y="-7" as="offset" />
          </mxGeometry>
        </mxCell>
        <mxCell id="mfKZD1bs8GT6rzWeoJmu-104" value="" style="points=[[0.25,0.25,0],[0.5,0,0],[0.75,0.25,0],[1,0.5,0],[0.75,0.75,0],[0.5,1,0],[0.25,0.75,0],[0,0.5,0]];shape=mxgraph.bpmn.gateway2;html=1;verticalLabelPosition=bottom;labelBackgroundColor=#ffffff;verticalAlign=top;align=center;perimeter=rhombusPerimeter;outlineConnect=0;outline=none;symbol=none;gwType=exclusive;" vertex="1" parent="mfKZD1bs8GT6rzWeoJmu-83">
          <mxGeometry x="2250" y="232.5" width="40" height="40" as="geometry" />
        </mxCell>
        <mxCell id="mfKZD1bs8GT6rzWeoJmu-105" style="edgeStyle=orthogonalEdgeStyle;rounded=0;orthogonalLoop=1;jettySize=auto;html=1;entryX=0;entryY=0.5;entryDx=0;entryDy=0;entryPerimeter=0;" edge="1" parent="mfKZD1bs8GT6rzWeoJmu-83" source="mfKZD1bs8GT6rzWeoJmu-98" target="mfKZD1bs8GT6rzWeoJmu-104">
          <mxGeometry relative="1" as="geometry" />
        </mxCell>
        <mxCell id="mfKZD1bs8GT6rzWeoJmu-106" value="&lt;font style=&quot;font-size: 15px;&quot;&gt;Nhận thông báo&lt;/font&gt;" style="points=[[0.25,0,0],[0.5,0,0],[0.75,0,0],[1,0.25,0],[1,0.5,0],[1,0.75,0],[0.75,1,0],[0.5,1,0],[0.25,1,0],[0,0.75,0],[0,0.5,0],[0,0.25,0]];shape=mxgraph.bpmn.task;whiteSpace=wrap;rectStyle=rounded;size=10;html=1;container=1;expand=0;collapsible=0;taskMarker=receive;" vertex="1" parent="mfKZD1bs8GT6rzWeoJmu-83">
          <mxGeometry x="3160" y="230" width="140" height="70" as="geometry" />
        </mxCell>
        <mxCell id="mfKZD1bs8GT6rzWeoJmu-107" value="" style="points=[[0.145,0.145,0],[0.5,0,0],[0.855,0.145,0],[1,0.5,0],[0.855,0.855,0],[0.5,1,0],[0.145,0.855,0],[0,0.5,0]];shape=mxgraph.bpmn.event;html=1;verticalLabelPosition=bottom;labelBackgroundColor=#ffffff;verticalAlign=top;align=center;perimeter=ellipsePerimeter;outlineConnect=0;aspect=fixed;outline=end;symbol=terminate2;" vertex="1" parent="mfKZD1bs8GT6rzWeoJmu-83">
          <mxGeometry x="3620" y="230" width="70" height="70" as="geometry" />
        </mxCell>
        <mxCell id="mfKZD1bs8GT6rzWeoJmu-108" style="edgeStyle=orthogonalEdgeStyle;rounded=0;orthogonalLoop=1;jettySize=auto;html=1;entryX=0;entryY=0.5;entryDx=0;entryDy=0;entryPerimeter=0;" edge="1" parent="mfKZD1bs8GT6rzWeoJmu-83" source="mfKZD1bs8GT6rzWeoJmu-106" target="mfKZD1bs8GT6rzWeoJmu-107">
          <mxGeometry relative="1" as="geometry" />
        </mxCell>
        <mxCell id="mfKZD1bs8GT6rzWeoJmu-109" value="&lt;span style=&quot;font-size: 14px;&quot;&gt;Nhập thông tin nhân viên&lt;/span&gt;" style="points=[[0.25,0,0],[0.5,0,0],[0.75,0,0],[1,0.25,0],[1,0.5,0],[1,0.75,0],[0.75,1,0],[0.5,1,0],[0.25,1,0],[0,0.75,0],[0,0.5,0],[0,0.25,0]];shape=mxgraph.bpmn.task;whiteSpace=wrap;rectStyle=rounded;size=10;html=1;container=1;expand=0;collapsible=0;taskMarker=user;" vertex="1" parent="mfKZD1bs8GT6rzWeoJmu-83">
          <mxGeometry x="530" y="30" width="140" height="80" as="geometry" />
        </mxCell>
        <mxCell id="mfKZD1bs8GT6rzWeoJmu-110" style="edgeStyle=orthogonalEdgeStyle;rounded=0;orthogonalLoop=1;jettySize=auto;html=1;entryX=0;entryY=0.5;entryDx=0;entryDy=0;entryPerimeter=0;" edge="1" parent="mfKZD1bs8GT6rzWeoJmu-83" source="mfKZD1bs8GT6rzWeoJmu-86" target="mfKZD1bs8GT6rzWeoJmu-109">
          <mxGeometry relative="1" as="geometry" />
        </mxCell>
        <mxCell id="mfKZD1bs8GT6rzWeoJmu-111" value="&lt;span style=&quot;font-size: 15px;&quot;&gt;Xem thông tin Nhân viên&lt;/span&gt;" style="points=[[0.25,0,0],[0.5,0,0],[0.75,0,0],[1,0.25,0],[1,0.5,0],[1,0.75,0],[0.75,1,0],[0.5,1,0],[0.25,1,0],[0,0.75,0],[0,0.5,0],[0,0.25,0]];shape=mxgraph.bpmn.task;whiteSpace=wrap;rectStyle=rounded;size=10;html=1;container=1;expand=0;collapsible=0;taskMarker=user;" vertex="1" parent="mfKZD1bs8GT6rzWeoJmu-83">
          <mxGeometry x="1770" y="380" width="130" height="55" as="geometry" />
        </mxCell>
        <mxCell id="mfKZD1bs8GT6rzWeoJmu-112" style="edgeStyle=orthogonalEdgeStyle;rounded=0;orthogonalLoop=1;jettySize=auto;html=1;entryX=0.5;entryY=0;entryDx=0;entryDy=0;entryPerimeter=0;" edge="1" parent="mfKZD1bs8GT6rzWeoJmu-83" source="mfKZD1bs8GT6rzWeoJmu-96" target="mfKZD1bs8GT6rzWeoJmu-111">
          <mxGeometry relative="1" as="geometry" />
        </mxCell>
        <mxCell id="mfKZD1bs8GT6rzWeoJmu-113" value="Nếu muốn xem thông tịn của mình&amp;nbsp;" style="edgeLabel;html=1;align=center;verticalAlign=middle;resizable=0;points=[];" vertex="1" connectable="0" parent="mfKZD1bs8GT6rzWeoJmu-112">
          <mxGeometry x="-0.0175" y="2" relative="1" as="geometry">
            <mxPoint as="offset" />
          </mxGeometry>
        </mxCell>
        <mxCell id="mfKZD1bs8GT6rzWeoJmu-114" value="" style="points=[[0.25,0.25,0],[0.5,0,0],[0.75,0.25,0],[1,0.5,0],[0.75,0.75,0],[0.5,1,0],[0.25,0.75,0],[0,0.5,0]];shape=mxgraph.bpmn.gateway2;html=1;verticalLabelPosition=bottom;labelBackgroundColor=#ffffff;verticalAlign=top;align=center;perimeter=rhombusPerimeter;outlineConnect=0;outline=none;symbol=none;gwType=exclusive;" vertex="1" parent="mfKZD1bs8GT6rzWeoJmu-83">
          <mxGeometry x="2950" y="30" width="40" height="40" as="geometry" />
        </mxCell>
        <mxCell id="mfKZD1bs8GT6rzWeoJmu-115" style="edgeStyle=orthogonalEdgeStyle;rounded=0;orthogonalLoop=1;jettySize=auto;html=1;entryX=0.5;entryY=1;entryDx=0;entryDy=0;entryPerimeter=0;" edge="1" parent="mfKZD1bs8GT6rzWeoJmu-83" source="mfKZD1bs8GT6rzWeoJmu-116" target="mfKZD1bs8GT6rzWeoJmu-95">
          <mxGeometry relative="1" as="geometry">
            <mxPoint x="1940" y="440" as="targetPoint" />
            <Array as="points">
              <mxPoint x="2970" y="460" />
              <mxPoint x="1690" y="460" />
            </Array>
          </mxGeometry>
        </mxCell>
        <mxCell id="mfKZD1bs8GT6rzWeoJmu-116" value="&lt;span style=&quot;font-size: 15px;&quot;&gt;Chọn trở về giao diện chính&lt;/span&gt;" style="points=[[0.25,0,0],[0.5,0,0],[0.75,0,0],[1,0.25,0],[1,0.5,0],[1,0.75,0],[0.75,1,0],[0.5,1,0],[0.25,1,0],[0,0.75,0],[0,0.5,0],[0,0.25,0]];shape=mxgraph.bpmn.task;whiteSpace=wrap;rectStyle=rounded;size=10;html=1;container=1;expand=0;collapsible=0;taskMarker=user;" vertex="1" parent="mfKZD1bs8GT6rzWeoJmu-83">
          <mxGeometry x="2905" y="176" width="130" height="60" as="geometry" />
        </mxCell>
        <mxCell id="mfKZD1bs8GT6rzWeoJmu-117" style="edgeStyle=orthogonalEdgeStyle;rounded=0;orthogonalLoop=1;jettySize=auto;html=1;entryX=0.5;entryY=0;entryDx=0;entryDy=0;entryPerimeter=0;" edge="1" parent="mfKZD1bs8GT6rzWeoJmu-83" source="mfKZD1bs8GT6rzWeoJmu-114" target="mfKZD1bs8GT6rzWeoJmu-116">
          <mxGeometry relative="1" as="geometry" />
        </mxCell>
        <mxCell id="mfKZD1bs8GT6rzWeoJmu-118" value="Nếu muốn thực hiện&lt;br&gt;&amp;nbsp;các chức năng khác" style="edgeLabel;html=1;align=center;verticalAlign=middle;resizable=0;points=[];" vertex="1" connectable="0" parent="mfKZD1bs8GT6rzWeoJmu-117">
          <mxGeometry x="-0.3396" relative="1" as="geometry">
            <mxPoint y="12" as="offset" />
          </mxGeometry>
        </mxCell>
        <mxCell id="mfKZD1bs8GT6rzWeoJmu-119" style="edgeStyle=orthogonalEdgeStyle;rounded=0;orthogonalLoop=1;jettySize=auto;html=1;entryX=0.5;entryY=0;entryDx=0;entryDy=0;entryPerimeter=0;" edge="1" parent="mfKZD1bs8GT6rzWeoJmu-83" source="mfKZD1bs8GT6rzWeoJmu-114" target="mfKZD1bs8GT6rzWeoJmu-107">
          <mxGeometry relative="1" as="geometry">
            <mxPoint x="3050" y="50" as="targetPoint" />
          </mxGeometry>
        </mxCell>
        <mxCell id="mfKZD1bs8GT6rzWeoJmu-120" value="Nếu không muốn thực hiện&lt;br&gt;&amp;nbsp;các chức năng&amp;nbsp;" style="edgeLabel;html=1;align=center;verticalAlign=middle;resizable=0;points=[];" vertex="1" connectable="0" parent="mfKZD1bs8GT6rzWeoJmu-119">
          <mxGeometry x="-0.7396" y="-4" relative="1" as="geometry">
            <mxPoint as="offset" />
          </mxGeometry>
        </mxCell>
        <mxCell id="mfKZD1bs8GT6rzWeoJmu-121" style="edgeStyle=orthogonalEdgeStyle;rounded=0;orthogonalLoop=1;jettySize=auto;html=1;exitX=0.5;exitY=0;exitDx=0;exitDy=0;exitPerimeter=0;" edge="1" parent="1" source="mfKZD1bs8GT6rzWeoJmu-37">
          <mxGeometry relative="1" as="geometry">
            <Array as="points">
              <mxPoint x="900" y="260" />
              <mxPoint x="460" y="260" />
              <mxPoint x="460" y="560" />
              <mxPoint x="603" y="560" />
            </Array>
            <mxPoint x="603" y="630" as="targetPoint" />
          </mxGeometry>
        </mxCell>
        <mxCell id="mfKZD1bs8GT6rzWeoJmu-122" style="edgeStyle=orthogonalEdgeStyle;rounded=0;orthogonalLoop=1;jettySize=auto;html=1;entryX=1;entryY=0.5;entryDx=0;entryDy=0;entryPerimeter=0;exitX=0.5;exitY=1;exitDx=0;exitDy=0;exitPerimeter=0;" edge="1" parent="1" source="mfKZD1bs8GT6rzWeoJmu-36" target="mfKZD1bs8GT6rzWeoJmu-89">
          <mxGeometry relative="1" as="geometry">
            <Array as="points">
              <mxPoint x="895" y="790" />
            </Array>
          </mxGeometry>
        </mxCell>
        <mxCell id="mfKZD1bs8GT6rzWeoJmu-123" style="edgeStyle=orthogonalEdgeStyle;rounded=0;orthogonalLoop=1;jettySize=auto;html=1;exitX=0.5;exitY=1;exitDx=0;exitDy=0;exitPerimeter=0;" edge="1" parent="1" source="mfKZD1bs8GT6rzWeoJmu-5" target="mfKZD1bs8GT6rzWeoJmu-42">
          <mxGeometry relative="1" as="geometry">
            <Array as="points">
              <mxPoint x="385" y="160" />
              <mxPoint x="1065" y="160" />
            </Array>
            <mxPoint x="385" y="-80" as="sourcePoint" />
          </mxGeometry>
        </mxCell>
        <mxCell id="mfKZD1bs8GT6rzWeoJmu-124" style="edgeStyle=orthogonalEdgeStyle;rounded=0;orthogonalLoop=1;jettySize=auto;html=1;entryX=0.5;entryY=1;entryDx=0;entryDy=0;entryPerimeter=0;exitX=1;exitY=0.5;exitDx=0;exitDy=0;exitPerimeter=0;" edge="1" parent="1" source="mfKZD1bs8GT6rzWeoJmu-93" target="mfKZD1bs8GT6rzWeoJmu-42">
          <mxGeometry relative="1" as="geometry">
            <mxPoint x="540" y="955" as="sourcePoint" />
            <Array as="points">
              <mxPoint x="1065" y="956" />
            </Array>
          </mxGeometry>
        </mxCell>
        <mxCell id="mfKZD1bs8GT6rzWeoJmu-125" style="edgeStyle=orthogonalEdgeStyle;rounded=0;orthogonalLoop=1;jettySize=auto;html=1;entryX=1;entryY=0.5;entryDx=0;entryDy=0;entryPerimeter=0;exitX=0.5;exitY=1;exitDx=0;exitDy=0;exitPerimeter=0;" edge="1" parent="1" source="mfKZD1bs8GT6rzWeoJmu-47" target="mfKZD1bs8GT6rzWeoJmu-91">
          <mxGeometry relative="1" as="geometry">
            <Array as="points">
              <mxPoint x="1620" y="875" />
            </Array>
          </mxGeometry>
        </mxCell>
        <mxCell id="mfKZD1bs8GT6rzWeoJmu-126" value="&lt;font style=&quot;font-size: 14px;&quot;&gt;Nhân viên nhập sai&lt;/font&gt;" style="edgeLabel;html=1;align=center;verticalAlign=middle;resizable=0;points=[];" vertex="1" connectable="0" parent="mfKZD1bs8GT6rzWeoJmu-125">
          <mxGeometry x="-0.9044" relative="1" as="geometry">
            <mxPoint y="-39" as="offset" />
          </mxGeometry>
        </mxCell>
        <mxCell id="mfKZD1bs8GT6rzWeoJmu-127" style="edgeStyle=orthogonalEdgeStyle;rounded=0;orthogonalLoop=1;jettySize=auto;html=1;entryX=0;entryY=0.5;entryDx=0;entryDy=0;entryPerimeter=0;" edge="1" parent="1" source="mfKZD1bs8GT6rzWeoJmu-43" target="mfKZD1bs8GT6rzWeoJmu-7">
          <mxGeometry relative="1" as="geometry">
            <Array as="points">
              <mxPoint x="1200" y="-180" />
            </Array>
          </mxGeometry>
        </mxCell>
        <mxCell id="mfKZD1bs8GT6rzWeoJmu-128" value="&lt;font style=&quot;font-size: 14px;&quot;&gt;Xác thực thông tin chủ quán đúng&lt;/font&gt;" style="edgeLabel;html=1;align=center;verticalAlign=middle;resizable=0;points=[];" vertex="1" connectable="0" parent="mfKZD1bs8GT6rzWeoJmu-127">
          <mxGeometry x="-0.8638" y="1" relative="1" as="geometry">
            <mxPoint as="offset" />
          </mxGeometry>
        </mxCell>
        <mxCell id="mfKZD1bs8GT6rzWeoJmu-129" style="edgeStyle=orthogonalEdgeStyle;rounded=0;orthogonalLoop=1;jettySize=auto;html=1;entryX=1;entryY=0.5;entryDx=0;entryDy=0;entryPerimeter=0;exitX=0.5;exitY=0;exitDx=0;exitDy=0;exitPerimeter=0;" edge="1" parent="1" source="mfKZD1bs8GT6rzWeoJmu-47" target="mfKZD1bs8GT6rzWeoJmu-3">
          <mxGeometry relative="1" as="geometry">
            <mxPoint x="1580" y="345" as="sourcePoint" />
            <mxPoint x="460" y="-296.25" as="targetPoint" />
            <Array as="points">
              <mxPoint x="1620" y="-46" />
              <mxPoint x="480" y="-46" />
              <mxPoint x="480" y="-290" />
            </Array>
          </mxGeometry>
        </mxCell>
        <mxCell id="mfKZD1bs8GT6rzWeoJmu-130" value="&lt;font style=&quot;font-size: 14px;&quot;&gt;Quản lý nhập sai&lt;/font&gt;" style="edgeLabel;html=1;align=center;verticalAlign=middle;resizable=0;points=[];" vertex="1" connectable="0" parent="mfKZD1bs8GT6rzWeoJmu-129">
          <mxGeometry x="-0.9398" y="2" relative="1" as="geometry">
            <mxPoint x="2" y="2" as="offset" />
          </mxGeometry>
        </mxCell>
        <mxCell id="mfKZD1bs8GT6rzWeoJmu-131" style="edgeStyle=orthogonalEdgeStyle;rounded=0;orthogonalLoop=1;jettySize=auto;html=1;entryX=0;entryY=0.5;entryDx=0;entryDy=0;entryPerimeter=0;" edge="1" parent="1" source="mfKZD1bs8GT6rzWeoJmu-43" target="mfKZD1bs8GT6rzWeoJmu-95">
          <mxGeometry relative="1" as="geometry">
            <Array as="points">
              <mxPoint x="1200" y="800" />
            </Array>
          </mxGeometry>
        </mxCell>
        <mxCell id="mfKZD1bs8GT6rzWeoJmu-132" value="&lt;font style=&quot;font-size: 14px;&quot;&gt;Xác thực thông tin nhân viên đúng&lt;/font&gt;" style="edgeLabel;html=1;align=center;verticalAlign=middle;resizable=0;points=[];" vertex="1" connectable="0" parent="mfKZD1bs8GT6rzWeoJmu-131">
          <mxGeometry x="-0.7813" relative="1" as="geometry">
            <mxPoint y="76" as="offset" />
          </mxGeometry>
        </mxCell>
        <mxCell id="mfKZD1bs8GT6rzWeoJmu-133" style="edgeStyle=orthogonalEdgeStyle;rounded=0;orthogonalLoop=1;jettySize=auto;html=1;entryX=0.5;entryY=0;entryDx=0;entryDy=0;entryPerimeter=0;" edge="1" parent="1" source="mfKZD1bs8GT6rzWeoJmu-11" target="mfKZD1bs8GT6rzWeoJmu-50">
          <mxGeometry relative="1" as="geometry" />
        </mxCell>
        <mxCell id="mfKZD1bs8GT6rzWeoJmu-134" style="edgeStyle=orthogonalEdgeStyle;rounded=0;orthogonalLoop=1;jettySize=auto;html=1;entryX=0.5;entryY=0;entryDx=0;entryDy=0;entryPerimeter=0;" edge="1" parent="1" source="mfKZD1bs8GT6rzWeoJmu-50" target="mfKZD1bs8GT6rzWeoJmu-99">
          <mxGeometry relative="1" as="geometry" />
        </mxCell>
        <mxCell id="mfKZD1bs8GT6rzWeoJmu-135" style="edgeStyle=orthogonalEdgeStyle;rounded=0;orthogonalLoop=1;jettySize=auto;html=1;entryX=0.403;entryY=1.048;entryDx=0;entryDy=0;entryPerimeter=0;" edge="1" parent="1" source="mfKZD1bs8GT6rzWeoJmu-99" target="mfKZD1bs8GT6rzWeoJmu-28">
          <mxGeometry relative="1" as="geometry" />
        </mxCell>
        <mxCell id="mfKZD1bs8GT6rzWeoJmu-136" style="edgeStyle=orthogonalEdgeStyle;rounded=0;orthogonalLoop=1;jettySize=auto;html=1;entryX=0;entryY=0.5;entryDx=0;entryDy=0;entryPerimeter=0;" edge="1" parent="1" source="mfKZD1bs8GT6rzWeoJmu-104" target="mfKZD1bs8GT6rzWeoJmu-54">
          <mxGeometry relative="1" as="geometry">
            <Array as="points">
              <mxPoint x="2310" y="260" />
            </Array>
          </mxGeometry>
        </mxCell>
        <mxCell id="mfKZD1bs8GT6rzWeoJmu-137" value="Nếu quét thành công" style="edgeLabel;html=1;align=center;verticalAlign=middle;resizable=0;points=[];" vertex="1" connectable="0" parent="mfKZD1bs8GT6rzWeoJmu-136">
          <mxGeometry x="-0.8507" y="1" relative="1" as="geometry">
            <mxPoint as="offset" />
          </mxGeometry>
        </mxCell>
        <mxCell id="mfKZD1bs8GT6rzWeoJmu-138" style="edgeStyle=orthogonalEdgeStyle;rounded=0;orthogonalLoop=1;jettySize=auto;html=1;entryX=0.5;entryY=1;entryDx=0;entryDy=0;entryPerimeter=0;" edge="1" parent="1" source="mfKZD1bs8GT6rzWeoJmu-51" target="mfKZD1bs8GT6rzWeoJmu-98">
          <mxGeometry relative="1" as="geometry">
            <Array as="points">
              <mxPoint x="2625" y="950" />
              <mxPoint x="2050" y="950" />
            </Array>
          </mxGeometry>
        </mxCell>
        <mxCell id="mfKZD1bs8GT6rzWeoJmu-139" style="edgeStyle=orthogonalEdgeStyle;rounded=0;orthogonalLoop=1;jettySize=auto;html=1;entryX=0.5;entryY=1;entryDx=0;entryDy=0;entryPerimeter=0;exitX=0.5;exitY=0;exitDx=0;exitDy=0;exitPerimeter=0;" edge="1" parent="1" source="mfKZD1bs8GT6rzWeoJmu-78" target="mfKZD1bs8GT6rzWeoJmu-2">
          <mxGeometry relative="1" as="geometry">
            <mxPoint x="200" y="-199.99999999999977" as="targetPoint" />
          </mxGeometry>
        </mxCell>
        <mxCell id="mfKZD1bs8GT6rzWeoJmu-140" value="Nếu là Chủ quán / Quản lý" style="edgeLabel;html=1;align=center;verticalAlign=middle;resizable=0;points=[];" vertex="1" connectable="0" parent="mfKZD1bs8GT6rzWeoJmu-139">
          <mxGeometry x="-0.5059" y="1" relative="1" as="geometry">
            <mxPoint y="60" as="offset" />
          </mxGeometry>
        </mxCell>
        <mxCell id="mfKZD1bs8GT6rzWeoJmu-141" style="edgeStyle=orthogonalEdgeStyle;rounded=0;orthogonalLoop=1;jettySize=auto;html=1;entryX=0.5;entryY=0;entryDx=0;entryDy=0;entryPerimeter=0;exitX=0.5;exitY=1;exitDx=0;exitDy=0;exitPerimeter=0;" edge="1" parent="1" source="mfKZD1bs8GT6rzWeoJmu-78" target="mfKZD1bs8GT6rzWeoJmu-84">
          <mxGeometry relative="1" as="geometry" />
        </mxCell>
        <mxCell id="mfKZD1bs8GT6rzWeoJmu-142" value="Nếu là Nhân viên" style="edgeLabel;html=1;align=center;verticalAlign=middle;resizable=0;points=[];" vertex="1" connectable="0" parent="mfKZD1bs8GT6rzWeoJmu-141">
          <mxGeometry x="-0.5279" y="5" relative="1" as="geometry">
            <mxPoint as="offset" />
          </mxGeometry>
        </mxCell>
        <mxCell id="mfKZD1bs8GT6rzWeoJmu-143" style="edgeStyle=orthogonalEdgeStyle;rounded=0;orthogonalLoop=1;jettySize=auto;html=1;entryX=0.5;entryY=1;entryDx=0;entryDy=0;entryPerimeter=0;" edge="1" parent="1" source="mfKZD1bs8GT6rzWeoJmu-104" target="mfKZD1bs8GT6rzWeoJmu-52">
          <mxGeometry relative="1" as="geometry" />
        </mxCell>
        <mxCell id="mfKZD1bs8GT6rzWeoJmu-144" value="Nếu lỗi" style="edgeLabel;html=1;align=center;verticalAlign=middle;resizable=0;points=[];" vertex="1" connectable="0" parent="mfKZD1bs8GT6rzWeoJmu-143">
          <mxGeometry x="-0.075" y="1" relative="1" as="geometry">
            <mxPoint y="-1" as="offset" />
          </mxGeometry>
        </mxCell>
        <mxCell id="mfKZD1bs8GT6rzWeoJmu-145" style="edgeStyle=orthogonalEdgeStyle;rounded=0;orthogonalLoop=1;jettySize=auto;html=1;entryX=0.75;entryY=1;entryDx=0;entryDy=0;entryPerimeter=0;" edge="1" parent="1" source="mfKZD1bs8GT6rzWeoJmu-109" target="mfKZD1bs8GT6rzWeoJmu-33">
          <mxGeometry relative="1" as="geometry" />
        </mxCell>
        <mxCell id="mfKZD1bs8GT6rzWeoJmu-146" style="edgeStyle=orthogonalEdgeStyle;rounded=0;orthogonalLoop=1;jettySize=auto;html=1;entryX=0.5;entryY=1;entryDx=0;entryDy=0;entryPerimeter=0;" edge="1" parent="1" source="mfKZD1bs8GT6rzWeoJmu-111" target="mfKZD1bs8GT6rzWeoJmu-80">
          <mxGeometry relative="1" as="geometry">
            <mxPoint x="2690" y="1100" as="targetPoint" />
          </mxGeometry>
        </mxCell>
        <mxCell id="mfKZD1bs8GT6rzWeoJmu-147" style="edgeStyle=orthogonalEdgeStyle;rounded=0;orthogonalLoop=1;jettySize=auto;html=1;entryX=0.5;entryY=0;entryDx=0;entryDy=0;entryPerimeter=0;" edge="1" parent="1" source="mfKZD1bs8GT6rzWeoJmu-80" target="mfKZD1bs8GT6rzWeoJmu-114">
          <mxGeometry relative="1" as="geometry" />
        </mxCell>
        <mxCell id="mfKZD1bs8GT6rzWeoJmu-148" style="edgeStyle=orthogonalEdgeStyle;rounded=0;orthogonalLoop=1;jettySize=auto;html=1;entryX=0.5;entryY=0;entryDx=0;entryDy=0;entryPerimeter=0;" edge="1" parent="1" source="mfKZD1bs8GT6rzWeoJmu-10" target="mfKZD1bs8GT6rzWeoJmu-106">
          <mxGeometry relative="1" as="geometry" />
        </mxCell>
      </root>
    </mxGraphModel>
  </diagram>
  <diagram id="m6esBEAWreJ9maumzxhL" name="uc-đăng nhập">
    <mxGraphModel dx="780" dy="496" grid="1" gridSize="10" guides="1" tooltips="1" connect="1" arrows="1" fold="1" page="1" pageScale="1" pageWidth="850" pageHeight="1100" math="0" shadow="0">
      <root>
        <mxCell id="0" />
        <mxCell id="1" parent="0" />
        <mxCell id="wKiqZwYnvU1IV6W3mI_d-1" value="Nhân viên" style="swimlane;startSize=20;whiteSpace=wrap;html=1;" vertex="1" parent="1">
          <mxGeometry x="20" y="90" width="360" height="550" as="geometry" />
        </mxCell>
        <mxCell id="wKiqZwYnvU1IV6W3mI_d-2" value="" style="ellipse;html=1;shape=startState;fillColor=#000000;strokeColor=#ff0000;" vertex="1" parent="wKiqZwYnvU1IV6W3mI_d-1">
          <mxGeometry x="50" y="80" width="30" height="30" as="geometry" />
        </mxCell>
        <mxCell id="wKiqZwYnvU1IV6W3mI_d-3" value="" style="edgeStyle=orthogonalEdgeStyle;html=1;verticalAlign=bottom;endArrow=open;endSize=8;strokeColor=#ff0000;rounded=0;entryX=0;entryY=0.5;entryDx=0;entryDy=0;" edge="1" parent="wKiqZwYnvU1IV6W3mI_d-1" source="wKiqZwYnvU1IV6W3mI_d-2" target="wKiqZwYnvU1IV6W3mI_d-4">
          <mxGeometry relative="1" as="geometry">
            <mxPoint x="140" y="95" as="targetPoint" />
          </mxGeometry>
        </mxCell>
        <mxCell id="wKiqZwYnvU1IV6W3mI_d-4" value="Nhập mã nhân viên và mật khẩu" style="rounded=1;whiteSpace=wrap;html=1;" vertex="1" parent="wKiqZwYnvU1IV6W3mI_d-1">
          <mxGeometry x="200" y="65" width="120" height="60" as="geometry" />
        </mxCell>
        <mxCell id="wKiqZwYnvU1IV6W3mI_d-5" value="Hệ thồng" style="swimlane;startSize=20;whiteSpace=wrap;html=1;" vertex="1" parent="1">
          <mxGeometry x="380" y="90" width="490" height="550" as="geometry" />
        </mxCell>
        <mxCell id="wKiqZwYnvU1IV6W3mI_d-6" value="Hệ thống xác thực thông tin&amp;nbsp;" style="points=[[0.25,0,0],[0.5,0,0],[0.75,0,0],[1,0.25,0],[1,0.5,0],[1,0.75,0],[0.75,1,0],[0.5,1,0],[0.25,1,0],[0,0.75,0],[0,0.5,0],[0,0.25,0]];shape=mxgraph.bpmn.task;whiteSpace=wrap;rectStyle=rounded;size=10;html=1;container=1;expand=0;collapsible=0;taskMarker=abstract;" vertex="1" parent="wKiqZwYnvU1IV6W3mI_d-5">
          <mxGeometry x="60" y="67.5" width="90" height="55" as="geometry" />
        </mxCell>
        <mxCell id="wKiqZwYnvU1IV6W3mI_d-7" style="edgeStyle=orthogonalEdgeStyle;rounded=0;orthogonalLoop=1;jettySize=auto;html=1;entryX=0;entryY=0.5;entryDx=0;entryDy=0;entryPerimeter=0;" edge="1" parent="wKiqZwYnvU1IV6W3mI_d-5" source="wKiqZwYnvU1IV6W3mI_d-9" target="wKiqZwYnvU1IV6W3mI_d-13">
          <mxGeometry relative="1" as="geometry">
            <mxPoint x="460" y="580" as="targetPoint" />
          </mxGeometry>
        </mxCell>
        <mxCell id="wKiqZwYnvU1IV6W3mI_d-8" value="Hợp lệ" style="edgeLabel;html=1;align=center;verticalAlign=middle;resizable=0;points=[];" vertex="1" connectable="0" parent="wKiqZwYnvU1IV6W3mI_d-7">
          <mxGeometry x="-0.1289" y="-4" relative="1" as="geometry">
            <mxPoint y="-3" as="offset" />
          </mxGeometry>
        </mxCell>
        <mxCell id="wKiqZwYnvU1IV6W3mI_d-9" value="" style="points=[[0.25,0.25,0],[0.5,0,0],[0.75,0.25,0],[1,0.5,0],[0.75,0.75,0],[0.5,1,0],[0.25,0.75,0],[0,0.5,0]];shape=mxgraph.bpmn.gateway2;html=1;verticalLabelPosition=bottom;labelBackgroundColor=#ffffff;verticalAlign=top;align=center;perimeter=rhombusPerimeter;outlineConnect=0;outline=none;symbol=none;" vertex="1" parent="wKiqZwYnvU1IV6W3mI_d-5">
          <mxGeometry x="82.5" y="145" width="45" height="40" as="geometry" />
        </mxCell>
        <mxCell id="wKiqZwYnvU1IV6W3mI_d-10" value="" style="ellipse;html=1;shape=endState;fillColor=#000000;strokeColor=#ff0000;" vertex="1" parent="wKiqZwYnvU1IV6W3mI_d-5">
          <mxGeometry x="420" y="260" width="30" height="30" as="geometry" />
        </mxCell>
        <mxCell id="wKiqZwYnvU1IV6W3mI_d-11" value="Yêu cầu nhập lại" style="points=[[0.25,0,0],[0.5,0,0],[0.75,0,0],[1,0.25,0],[1,0.5,0],[1,0.75,0],[0.75,1,0],[0.5,1,0],[0.25,1,0],[0,0.75,0],[0,0.5,0],[0,0.25,0]];shape=mxgraph.bpmn.task;whiteSpace=wrap;rectStyle=rounded;size=10;html=1;container=1;expand=0;collapsible=0;taskMarker=abstract;" vertex="1" parent="wKiqZwYnvU1IV6W3mI_d-5">
          <mxGeometry x="59.5" y="420" width="90" height="48.12" as="geometry" />
        </mxCell>
        <mxCell id="wKiqZwYnvU1IV6W3mI_d-12" style="edgeStyle=orthogonalEdgeStyle;rounded=0;orthogonalLoop=1;jettySize=auto;html=1;entryX=0.5;entryY=0;entryDx=0;entryDy=0;" edge="1" parent="wKiqZwYnvU1IV6W3mI_d-5" source="wKiqZwYnvU1IV6W3mI_d-13" target="wKiqZwYnvU1IV6W3mI_d-10">
          <mxGeometry relative="1" as="geometry" />
        </mxCell>
        <mxCell id="wKiqZwYnvU1IV6W3mI_d-13" value="Hiển thị màn hình giao diện chính" style="points=[[0.25,0,0],[0.5,0,0],[0.75,0,0],[1,0.25,0],[1,0.5,0],[1,0.75,0],[0.75,1,0],[0.5,1,0],[0.25,1,0],[0,0.75,0],[0,0.5,0],[0,0.25,0]];shape=mxgraph.bpmn.task;whiteSpace=wrap;rectStyle=rounded;size=10;html=1;container=1;expand=0;collapsible=0;taskMarker=abstract;" vertex="1" parent="wKiqZwYnvU1IV6W3mI_d-5">
          <mxGeometry x="360" y="133.13" width="90" height="63.75" as="geometry" />
        </mxCell>
        <mxCell id="wKiqZwYnvU1IV6W3mI_d-14" style="edgeStyle=orthogonalEdgeStyle;rounded=0;orthogonalLoop=1;jettySize=auto;html=1;entryX=0.5;entryY=1;entryDx=0;entryDy=0;" edge="1" parent="wKiqZwYnvU1IV6W3mI_d-5" source="wKiqZwYnvU1IV6W3mI_d-15" target="wKiqZwYnvU1IV6W3mI_d-10">
          <mxGeometry relative="1" as="geometry" />
        </mxCell>
        <mxCell id="wKiqZwYnvU1IV6W3mI_d-15" value="Thông báo &quot;Lỗi đăng nhập&quot;" style="points=[[0.25,0,0],[0.5,0,0],[0.75,0,0],[1,0.25,0],[1,0.5,0],[1,0.75,0],[0.75,1,0],[0.5,1,0],[0.25,1,0],[0,0.75,0],[0,0.5,0],[0,0.25,0]];shape=mxgraph.bpmn.task;whiteSpace=wrap;rectStyle=rounded;size=10;html=1;container=1;expand=0;collapsible=0;taskMarker=abstract;" vertex="1" parent="wKiqZwYnvU1IV6W3mI_d-5">
          <mxGeometry x="300" y="328.13" width="90" height="63.75" as="geometry" />
        </mxCell>
        <mxCell id="wKiqZwYnvU1IV6W3mI_d-16" style="edgeStyle=orthogonalEdgeStyle;rounded=0;orthogonalLoop=1;jettySize=auto;html=1;entryX=0.5;entryY=0;entryDx=0;entryDy=0;entryPerimeter=0;" edge="1" parent="wKiqZwYnvU1IV6W3mI_d-5" source="wKiqZwYnvU1IV6W3mI_d-6" target="wKiqZwYnvU1IV6W3mI_d-9">
          <mxGeometry relative="1" as="geometry" />
        </mxCell>
        <mxCell id="wKiqZwYnvU1IV6W3mI_d-17" value="" style="points=[[0.25,0.25,0],[0.5,0,0],[0.75,0.25,0],[1,0.5,0],[0.75,0.75,0],[0.5,1,0],[0.25,0.75,0],[0,0.5,0]];shape=mxgraph.bpmn.gateway2;html=1;verticalLabelPosition=bottom;labelBackgroundColor=#ffffff;verticalAlign=top;align=center;perimeter=rhombusPerimeter;outlineConnect=0;outline=none;symbol=none;" vertex="1" parent="wKiqZwYnvU1IV6W3mI_d-5">
          <mxGeometry x="82" y="220" width="45" height="40" as="geometry" />
        </mxCell>
        <mxCell id="wKiqZwYnvU1IV6W3mI_d-18" style="edgeStyle=orthogonalEdgeStyle;rounded=0;orthogonalLoop=1;jettySize=auto;html=1;entryX=0.5;entryY=0;entryDx=0;entryDy=0;entryPerimeter=0;" edge="1" parent="wKiqZwYnvU1IV6W3mI_d-5" source="wKiqZwYnvU1IV6W3mI_d-9" target="wKiqZwYnvU1IV6W3mI_d-17">
          <mxGeometry relative="1" as="geometry" />
        </mxCell>
        <mxCell id="wKiqZwYnvU1IV6W3mI_d-19" value="Không hợp lệ" style="edgeLabel;html=1;align=center;verticalAlign=middle;resizable=0;points=[];" vertex="1" connectable="0" parent="wKiqZwYnvU1IV6W3mI_d-18">
          <mxGeometry x="-0.4947" y="-3" relative="1" as="geometry">
            <mxPoint as="offset" />
          </mxGeometry>
        </mxCell>
        <mxCell id="wKiqZwYnvU1IV6W3mI_d-20" style="edgeStyle=orthogonalEdgeStyle;rounded=0;orthogonalLoop=1;jettySize=auto;html=1;entryX=0.5;entryY=0;entryDx=0;entryDy=0;entryPerimeter=0;" edge="1" parent="wKiqZwYnvU1IV6W3mI_d-5" source="wKiqZwYnvU1IV6W3mI_d-17" target="wKiqZwYnvU1IV6W3mI_d-15">
          <mxGeometry relative="1" as="geometry" />
        </mxCell>
        <mxCell id="wKiqZwYnvU1IV6W3mI_d-21" value="Nếu sai &amp;gt;3 lần" style="edgeLabel;html=1;align=center;verticalAlign=middle;resizable=0;points=[];" vertex="1" connectable="0" parent="wKiqZwYnvU1IV6W3mI_d-20">
          <mxGeometry x="-0.152" y="-1" relative="1" as="geometry">
            <mxPoint as="offset" />
          </mxGeometry>
        </mxCell>
        <mxCell id="wKiqZwYnvU1IV6W3mI_d-22" style="edgeStyle=orthogonalEdgeStyle;rounded=0;orthogonalLoop=1;jettySize=auto;html=1;entryX=0.5;entryY=0;entryDx=0;entryDy=0;entryPerimeter=0;" edge="1" parent="wKiqZwYnvU1IV6W3mI_d-5" source="wKiqZwYnvU1IV6W3mI_d-17" target="wKiqZwYnvU1IV6W3mI_d-24">
          <mxGeometry relative="1" as="geometry">
            <mxPoint x="160" y="290" as="targetPoint" />
          </mxGeometry>
        </mxCell>
        <mxCell id="wKiqZwYnvU1IV6W3mI_d-23" value="Nếu sai &amp;lt; 3 lần" style="edgeLabel;html=1;align=center;verticalAlign=middle;resizable=0;points=[];" vertex="1" connectable="0" parent="wKiqZwYnvU1IV6W3mI_d-22">
          <mxGeometry x="-0.2727" y="-2" relative="1" as="geometry">
            <mxPoint y="1" as="offset" />
          </mxGeometry>
        </mxCell>
        <mxCell id="wKiqZwYnvU1IV6W3mI_d-24" value="Thông báo &quot;Mã nhân viên hoặc mật khẩu không đúng" style="points=[[0.25,0,0],[0.5,0,0],[0.75,0,0],[1,0.25,0],[1,0.5,0],[1,0.75,0],[0.75,1,0],[0.5,1,0],[0.25,1,0],[0,0.75,0],[0,0.5,0],[0,0.25,0]];shape=mxgraph.bpmn.task;whiteSpace=wrap;rectStyle=rounded;size=10;html=1;container=1;expand=0;collapsible=0;taskMarker=abstract;" vertex="1" parent="wKiqZwYnvU1IV6W3mI_d-5">
          <mxGeometry x="60" y="310" width="90" height="70" as="geometry" />
        </mxCell>
        <mxCell id="wKiqZwYnvU1IV6W3mI_d-25" style="edgeStyle=orthogonalEdgeStyle;rounded=0;orthogonalLoop=1;jettySize=auto;html=1;entryX=0.5;entryY=0;entryDx=0;entryDy=0;entryPerimeter=0;" edge="1" parent="wKiqZwYnvU1IV6W3mI_d-5" source="wKiqZwYnvU1IV6W3mI_d-24" target="wKiqZwYnvU1IV6W3mI_d-11">
          <mxGeometry relative="1" as="geometry" />
        </mxCell>
        <mxCell id="wKiqZwYnvU1IV6W3mI_d-26" style="edgeStyle=orthogonalEdgeStyle;rounded=0;orthogonalLoop=1;jettySize=auto;html=1;entryX=0;entryY=0.5;entryDx=0;entryDy=0;entryPerimeter=0;" edge="1" parent="1" source="wKiqZwYnvU1IV6W3mI_d-4" target="wKiqZwYnvU1IV6W3mI_d-6">
          <mxGeometry relative="1" as="geometry" />
        </mxCell>
        <mxCell id="wKiqZwYnvU1IV6W3mI_d-27" style="edgeStyle=orthogonalEdgeStyle;rounded=0;orthogonalLoop=1;jettySize=auto;html=1;entryX=0.5;entryY=1;entryDx=0;entryDy=0;" edge="1" parent="1" source="wKiqZwYnvU1IV6W3mI_d-11" target="wKiqZwYnvU1IV6W3mI_d-4">
          <mxGeometry relative="1" as="geometry" />
        </mxCell>
      </root>
    </mxGraphModel>
  </diagram>
  <diagram id="NyXgcVmYtzFqsoxztjnR" name="ucd ">
    <mxGraphModel dx="1950" dy="1240" grid="1" gridSize="10" guides="1" tooltips="1" connect="1" arrows="1" fold="1" page="1" pageScale="1" pageWidth="850" pageHeight="1100" math="0" shadow="0">
      <root>
        <mxCell id="0" />
        <mxCell id="1" parent="0" />
        <mxCell id="R1nvxhbOBI7yfYBnXt7f-1" value="Nhân viên" style="shape=umlActor;verticalLabelPosition=bottom;verticalAlign=top;html=1;fontFamily=Times New Roman;fontSize=20;labelBackgroundColor=none;fillColor=#FAE5C7;strokeColor=#0F8B8D;fontColor=#143642;" vertex="1" parent="1">
          <mxGeometry x="60" y="770" width="100" height="150" as="geometry" />
        </mxCell>
        <mxCell id="R1nvxhbOBI7yfYBnXt7f-2" value="Đăng nhập" style="ellipse;whiteSpace=wrap;html=1;fontFamily=Times New Roman;fontSize=20;labelBackgroundColor=none;fillColor=#f8cecc;strokeColor=#b85450;" vertex="1" parent="1">
          <mxGeometry x="980" y="620" width="240" height="130" as="geometry" />
        </mxCell>
        <mxCell id="R1nvxhbOBI7yfYBnXt7f-3" value="Quản lý thông tin nhân viên" style="ellipse;whiteSpace=wrap;html=1;fontFamily=Times New Roman;fontSize=20;labelBackgroundColor=none;fillColor=#e3c800;strokeColor=#B09500;fontColor=#000000;" vertex="1" parent="1">
          <mxGeometry x="1540" y="270" width="190" height="100" as="geometry" />
        </mxCell>
        <mxCell id="R1nvxhbOBI7yfYBnXt7f-4" value="Chia lịch làm" style="ellipse;whiteSpace=wrap;html=1;fontFamily=Times New Roman;fontSize=20;labelBackgroundColor=none;fillColor=#e3c800;strokeColor=#B09500;fontColor=#000000;" vertex="1" parent="1">
          <mxGeometry x="1680" y="570" width="190" height="100" as="geometry" />
        </mxCell>
        <mxCell id="R1nvxhbOBI7yfYBnXt7f-5" value="Đăng ký lịch làm" style="ellipse;whiteSpace=wrap;html=1;fontFamily=Times New Roman;fontSize=20;labelBackgroundColor=none;fillColor=#fff2cc;strokeColor=#d6b656;" vertex="1" parent="1">
          <mxGeometry x="450" y="910" width="190" height="100" as="geometry" />
        </mxCell>
        <mxCell id="R1nvxhbOBI7yfYBnXt7f-6" value="Đăng ký" style="ellipse;whiteSpace=wrap;html=1;fontFamily=Times New Roman;fontSize=20;labelBackgroundColor=none;fillColor=#fff2cc;strokeColor=#d6b656;" vertex="1" parent="1">
          <mxGeometry x="450" y="590" width="190" height="100" as="geometry" />
        </mxCell>
        <mxCell id="R1nvxhbOBI7yfYBnXt7f-7" value="Sửa thông tin nhân viên" style="ellipse;whiteSpace=wrap;html=1;fontFamily=Times New Roman;fontSize=20;labelBackgroundColor=none;fillColor=#fff2cc;strokeColor=#d6b656;" vertex="1" parent="1">
          <mxGeometry x="980" y="140" width="190" height="100" as="geometry" />
        </mxCell>
        <mxCell id="R1nvxhbOBI7yfYBnXt7f-8" value="Xóa thông tin nhân viên" style="ellipse;whiteSpace=wrap;html=1;fontFamily=Times New Roman;fontSize=20;labelBackgroundColor=none;fillColor=#fff2cc;strokeColor=#d6b656;" vertex="1" parent="1">
          <mxGeometry x="1000" y="320" width="190" height="100" as="geometry" />
        </mxCell>
        <mxCell id="R1nvxhbOBI7yfYBnXt7f-9" value="Chấm công" style="ellipse;whiteSpace=wrap;html=1;fontFamily=Times New Roman;fontSize=20;labelBackgroundColor=none;fillColor=#fff2cc;strokeColor=#d6b656;" vertex="1" parent="1">
          <mxGeometry x="460" y="1180" width="190" height="100" as="geometry" />
        </mxCell>
        <mxCell id="R1nvxhbOBI7yfYBnXt7f-10" value="" style="endArrow=none;endFill=0;endSize=12;html=1;rounded=0;exitX=1;exitY=0.3333333333333333;exitDx=0;exitDy=0;exitPerimeter=0;fontFamily=Times New Roman;fontSize=20;labelBackgroundColor=none;strokeColor=#A8201A;fontColor=default;" edge="1" parent="1" source="R1nvxhbOBI7yfYBnXt7f-1" target="R1nvxhbOBI7yfYBnXt7f-6">
          <mxGeometry width="160" relative="1" as="geometry">
            <mxPoint x="870" y="930" as="sourcePoint" />
            <mxPoint x="1030" y="930" as="targetPoint" />
          </mxGeometry>
        </mxCell>
        <mxCell id="R1nvxhbOBI7yfYBnXt7f-11" value="" style="endArrow=open;endFill=1;endSize=12;html=1;rounded=0;dashed=1;fontFamily=Times New Roman;fontSize=20;labelBackgroundColor=none;strokeColor=#A8201A;fontColor=default;entryX=1;entryY=0.5;entryDx=0;entryDy=0;exitX=0;exitY=1;exitDx=0;exitDy=0;" edge="1" parent="1" source="R1nvxhbOBI7yfYBnXt7f-4" target="R1nvxhbOBI7yfYBnXt7f-5">
          <mxGeometry width="160" relative="1" as="geometry">
            <mxPoint x="880" y="980" as="sourcePoint" />
            <mxPoint x="1722" y="469" as="targetPoint" />
          </mxGeometry>
        </mxCell>
        <mxCell id="R1nvxhbOBI7yfYBnXt7f-12" value="&amp;lt;&amp;lt;include&amp;gt;&amp;gt;" style="edgeLabel;html=1;align=center;verticalAlign=middle;resizable=0;points=[];fontFamily=Times New Roman;fontSize=20;labelBackgroundColor=none;fontColor=#143642;" connectable="0" vertex="1" parent="R1nvxhbOBI7yfYBnXt7f-11">
          <mxGeometry x="0.3636" y="1" relative="1" as="geometry">
            <mxPoint x="84" y="-5" as="offset" />
          </mxGeometry>
        </mxCell>
        <mxCell id="R1nvxhbOBI7yfYBnXt7f-13" value="" style="endArrow=none;endFill=0;endSize=12;html=1;rounded=0;exitX=0;exitY=0.3333333333333333;exitDx=0;exitDy=0;exitPerimeter=0;fontFamily=Times New Roman;fontSize=20;labelBackgroundColor=none;strokeColor=#A8201A;fontColor=default;entryX=1;entryY=0;entryDx=0;entryDy=0;" edge="1" parent="1" source="R1nvxhbOBI7yfYBnXt7f-21" target="R1nvxhbOBI7yfYBnXt7f-3">
          <mxGeometry width="160" relative="1" as="geometry">
            <mxPoint x="170" y="830" as="sourcePoint" />
            <mxPoint x="420" y="763" as="targetPoint" />
          </mxGeometry>
        </mxCell>
        <mxCell id="R1nvxhbOBI7yfYBnXt7f-14" value="" style="endArrow=open;endFill=1;endSize=12;html=1;rounded=0;dashed=1;fontFamily=Times New Roman;fontSize=20;labelBackgroundColor=none;strokeColor=#A8201A;fontColor=default;entryX=0.5;entryY=0;entryDx=0;entryDy=0;" edge="1" parent="1" source="R1nvxhbOBI7yfYBnXt7f-3" target="R1nvxhbOBI7yfYBnXt7f-2">
          <mxGeometry width="160" relative="1" as="geometry">
            <mxPoint x="600" y="740" as="sourcePoint" />
            <mxPoint x="965" y="505" as="targetPoint" />
          </mxGeometry>
        </mxCell>
        <mxCell id="R1nvxhbOBI7yfYBnXt7f-15" value="&amp;lt;&amp;lt;include&amp;gt;&amp;gt;" style="edgeLabel;html=1;align=center;verticalAlign=middle;resizable=0;points=[];fontFamily=Times New Roman;fontSize=20;labelBackgroundColor=none;fontColor=#143642;" connectable="0" vertex="1" parent="R1nvxhbOBI7yfYBnXt7f-14">
          <mxGeometry x="0.3636" y="1" relative="1" as="geometry">
            <mxPoint x="-1" as="offset" />
          </mxGeometry>
        </mxCell>
        <mxCell id="R1nvxhbOBI7yfYBnXt7f-16" value="" style="endArrow=none;endFill=0;endSize=12;html=1;rounded=0;exitX=0.5;exitY=0.5;exitDx=0;exitDy=0;exitPerimeter=0;fontFamily=Times New Roman;fontSize=20;labelBackgroundColor=none;strokeColor=#A8201A;fontColor=default;" edge="1" parent="1" source="R1nvxhbOBI7yfYBnXt7f-1" target="R1nvxhbOBI7yfYBnXt7f-9">
          <mxGeometry width="160" relative="1" as="geometry">
            <mxPoint x="170" y="830" as="sourcePoint" />
            <mxPoint x="420" y="762" as="targetPoint" />
          </mxGeometry>
        </mxCell>
        <mxCell id="R1nvxhbOBI7yfYBnXt7f-17" value="" style="endArrow=none;endFill=0;endSize=12;html=1;rounded=0;exitX=0.5;exitY=0.5;exitDx=0;exitDy=0;exitPerimeter=0;fontFamily=Times New Roman;fontSize=20;labelBackgroundColor=none;strokeColor=#A8201A;fontColor=default;" edge="1" parent="1" source="R1nvxhbOBI7yfYBnXt7f-1" target="R1nvxhbOBI7yfYBnXt7f-5">
          <mxGeometry width="160" relative="1" as="geometry">
            <mxPoint x="120" y="855" as="sourcePoint" />
            <mxPoint x="526" y="1056" as="targetPoint" />
          </mxGeometry>
        </mxCell>
        <mxCell id="R1nvxhbOBI7yfYBnXt7f-18" value="" style="endArrow=none;endFill=0;endSize=12;html=1;rounded=0;exitX=0;exitY=0.3333333333333333;exitDx=0;exitDy=0;exitPerimeter=0;fontFamily=Times New Roman;fontSize=20;labelBackgroundColor=none;strokeColor=#A8201A;fontColor=default;entryX=1;entryY=0;entryDx=0;entryDy=0;" edge="1" parent="1" source="R1nvxhbOBI7yfYBnXt7f-21" target="R1nvxhbOBI7yfYBnXt7f-4">
          <mxGeometry width="160" relative="1" as="geometry">
            <mxPoint x="2230" y="305" as="sourcePoint" />
            <mxPoint x="2050" y="345" as="targetPoint" />
          </mxGeometry>
        </mxCell>
        <mxCell id="R1nvxhbOBI7yfYBnXt7f-19" value="" style="endArrow=open;endFill=1;endSize=12;html=1;rounded=0;dashed=1;fontFamily=Times New Roman;fontSize=20;labelBackgroundColor=none;strokeColor=#A8201A;fontColor=default;entryX=1;entryY=0.5;entryDx=0;entryDy=0;exitX=0;exitY=0.5;exitDx=0;exitDy=0;" edge="1" parent="1" source="R1nvxhbOBI7yfYBnXt7f-4" target="R1nvxhbOBI7yfYBnXt7f-2">
          <mxGeometry width="160" relative="1" as="geometry">
            <mxPoint x="1045" y="482" as="sourcePoint" />
            <mxPoint x="1684" y="700" as="targetPoint" />
          </mxGeometry>
        </mxCell>
        <mxCell id="R1nvxhbOBI7yfYBnXt7f-20" value="&amp;lt;&amp;lt;include&amp;gt;&amp;gt;" style="edgeLabel;html=1;align=center;verticalAlign=middle;resizable=0;points=[];fontFamily=Times New Roman;fontSize=20;labelBackgroundColor=none;fontColor=#143642;" connectable="0" vertex="1" parent="R1nvxhbOBI7yfYBnXt7f-19">
          <mxGeometry x="0.3636" y="1" relative="1" as="geometry">
            <mxPoint x="-1" as="offset" />
          </mxGeometry>
        </mxCell>
        <mxCell id="R1nvxhbOBI7yfYBnXt7f-21" value="Chủ quán" style="shape=umlActor;verticalLabelPosition=bottom;verticalAlign=top;html=1;fontFamily=Times New Roman;fontSize=20;labelBackgroundColor=none;fillColor=#FAE5C7;strokeColor=#0F8B8D;fontColor=#143642;" vertex="1" parent="1">
          <mxGeometry x="2160" y="220" width="100" height="150" as="geometry" />
        </mxCell>
        <mxCell id="R1nvxhbOBI7yfYBnXt7f-22" value="Gửi thông báo" style="ellipse;whiteSpace=wrap;html=1;fontFamily=Times New Roman;fontSize=20;labelBackgroundColor=none;fillColor=#e3c800;strokeColor=#B09500;fontColor=#000000;" vertex="1" parent="1">
          <mxGeometry x="1620" y="940" width="190" height="100" as="geometry" />
        </mxCell>
        <mxCell id="R1nvxhbOBI7yfYBnXt7f-23" value="" style="endArrow=none;endFill=0;endSize=12;html=1;rounded=0;exitX=0;exitY=1;exitDx=0;exitDy=0;exitPerimeter=0;fontFamily=Times New Roman;fontSize=20;labelBackgroundColor=none;strokeColor=#A8201A;fontColor=default;entryX=1;entryY=0;entryDx=0;entryDy=0;" edge="1" parent="1" source="R1nvxhbOBI7yfYBnXt7f-21" target="R1nvxhbOBI7yfYBnXt7f-22">
          <mxGeometry width="160" relative="1" as="geometry">
            <mxPoint x="2170" y="280" as="sourcePoint" />
            <mxPoint x="1600" y="1300" as="targetPoint" />
          </mxGeometry>
        </mxCell>
        <mxCell id="R1nvxhbOBI7yfYBnXt7f-24" value="" style="endArrow=open;endFill=1;endSize=12;html=1;rounded=0;dashed=1;fontFamily=Times New Roman;fontSize=20;labelBackgroundColor=none;strokeColor=#A8201A;fontColor=default;entryX=0;entryY=1;entryDx=0;entryDy=0;exitX=1;exitY=0;exitDx=0;exitDy=0;" edge="1" parent="1" source="R1nvxhbOBI7yfYBnXt7f-9" target="R1nvxhbOBI7yfYBnXt7f-2">
          <mxGeometry width="160" relative="1" as="geometry">
            <mxPoint x="1547" y="765" as="sourcePoint" />
            <mxPoint x="650" y="970" as="targetPoint" />
          </mxGeometry>
        </mxCell>
        <mxCell id="R1nvxhbOBI7yfYBnXt7f-25" value="&amp;lt;&amp;lt;include&amp;gt;&amp;gt;" style="edgeLabel;html=1;align=center;verticalAlign=middle;resizable=0;points=[];fontFamily=Times New Roman;fontSize=20;labelBackgroundColor=none;fontColor=#143642;" connectable="0" vertex="1" parent="R1nvxhbOBI7yfYBnXt7f-24">
          <mxGeometry x="0.3636" y="1" relative="1" as="geometry">
            <mxPoint x="-59" y="134" as="offset" />
          </mxGeometry>
        </mxCell>
        <mxCell id="R1nvxhbOBI7yfYBnXt7f-26" value="" style="endArrow=open;endFill=1;endSize=12;html=1;rounded=0;dashed=1;fontFamily=Times New Roman;fontSize=20;labelBackgroundColor=none;strokeColor=#A8201A;fontColor=default;entryX=1;entryY=1;entryDx=0;entryDy=0;exitX=0;exitY=0;exitDx=0;exitDy=0;" edge="1" parent="1" source="R1nvxhbOBI7yfYBnXt7f-22" target="R1nvxhbOBI7yfYBnXt7f-2">
          <mxGeometry width="160" relative="1" as="geometry">
            <mxPoint x="1520" y="730" as="sourcePoint" />
            <mxPoint x="1230" y="695" as="targetPoint" />
          </mxGeometry>
        </mxCell>
        <mxCell id="R1nvxhbOBI7yfYBnXt7f-27" value="&amp;lt;&amp;lt;include&amp;gt;&amp;gt;" style="edgeLabel;html=1;align=center;verticalAlign=middle;resizable=0;points=[];fontFamily=Times New Roman;fontSize=20;labelBackgroundColor=none;fontColor=#143642;" connectable="0" vertex="1" parent="R1nvxhbOBI7yfYBnXt7f-26">
          <mxGeometry x="0.3636" y="1" relative="1" as="geometry">
            <mxPoint x="76" y="69" as="offset" />
          </mxGeometry>
        </mxCell>
        <mxCell id="R1nvxhbOBI7yfYBnXt7f-28" value="" style="endArrow=open;endFill=1;endSize=12;html=1;rounded=0;dashed=1;fontFamily=Times New Roman;fontSize=20;labelBackgroundColor=none;strokeColor=#A8201A;fontColor=default;entryX=0;entryY=0.5;entryDx=0;entryDy=0;exitX=0.5;exitY=0;exitDx=0;exitDy=0;" edge="1" parent="1" source="R1nvxhbOBI7yfYBnXt7f-5" target="R1nvxhbOBI7yfYBnXt7f-2">
          <mxGeometry width="160" relative="1" as="geometry">
            <mxPoint x="632" y="1205" as="sourcePoint" />
            <mxPoint x="1025" y="741" as="targetPoint" />
          </mxGeometry>
        </mxCell>
        <mxCell id="R1nvxhbOBI7yfYBnXt7f-29" value="&amp;lt;&amp;lt;include&amp;gt;&amp;gt;" style="edgeLabel;html=1;align=center;verticalAlign=middle;resizable=0;points=[];fontFamily=Times New Roman;fontSize=20;labelBackgroundColor=none;fontColor=#143642;" connectable="0" vertex="1" parent="R1nvxhbOBI7yfYBnXt7f-28">
          <mxGeometry x="0.3636" y="1" relative="1" as="geometry">
            <mxPoint x="-59" y="26" as="offset" />
          </mxGeometry>
        </mxCell>
        <mxCell id="R1nvxhbOBI7yfYBnXt7f-30" value="Xem thông tin nhân viên" style="ellipse;whiteSpace=wrap;html=1;fontFamily=Times New Roman;fontSize=20;labelBackgroundColor=none;fillColor=#fff2cc;strokeColor=#d6b656;" vertex="1" parent="1">
          <mxGeometry x="1270" y="40" width="190" height="100" as="geometry" />
        </mxCell>
        <mxCell id="R1nvxhbOBI7yfYBnXt7f-31" value="Extend" style="endArrow=open;endSize=12;dashed=1;html=1;rounded=0;exitX=1;exitY=0.5;exitDx=0;exitDy=0;entryX=0;entryY=0;entryDx=0;entryDy=0;" edge="1" parent="1" source="R1nvxhbOBI7yfYBnXt7f-7" target="R1nvxhbOBI7yfYBnXt7f-3">
          <mxGeometry width="160" relative="1" as="geometry">
            <mxPoint x="405" y="650" as="sourcePoint" />
            <mxPoint x="1310" y="250" as="targetPoint" />
          </mxGeometry>
        </mxCell>
        <mxCell id="R1nvxhbOBI7yfYBnXt7f-32" value="Extend" style="endArrow=open;endSize=12;dashed=1;html=1;rounded=0;entryX=0;entryY=0.5;entryDx=0;entryDy=0;exitX=1;exitY=0.5;exitDx=0;exitDy=0;" edge="1" parent="1" source="R1nvxhbOBI7yfYBnXt7f-8" target="R1nvxhbOBI7yfYBnXt7f-3">
          <mxGeometry width="160" relative="1" as="geometry">
            <mxPoint x="1070" y="480" as="sourcePoint" />
            <mxPoint x="920" y="220" as="targetPoint" />
          </mxGeometry>
        </mxCell>
        <mxCell id="R1nvxhbOBI7yfYBnXt7f-33" value="Extend" style="endArrow=open;endSize=12;dashed=1;html=1;rounded=0;exitX=0.5;exitY=1;exitDx=0;exitDy=0;entryX=0.5;entryY=0;entryDx=0;entryDy=0;" edge="1" parent="1" source="R1nvxhbOBI7yfYBnXt7f-30" target="R1nvxhbOBI7yfYBnXt7f-3">
          <mxGeometry width="160" relative="1" as="geometry">
            <mxPoint x="920" y="220" as="sourcePoint" />
            <mxPoint x="1388" y="355" as="targetPoint" />
          </mxGeometry>
        </mxCell>
      </root>
    </mxGraphModel>
  </diagram>
</mxfile>
